<svg xmlns="http://www.w3.org/2000/svg" width="20" height="14" viewBox="0 0 20 14">
  <g id="유튜브" transform="matrix(1, 0, 0, 1, -14.308, -25.359)" opacity="0.502">
    <g id="그룹_556" data-name="그룹 556">
      <path id="패스_699" data-name="패스 699" d="M33.89,27.545a2.5,2.5,0,0,0-1.768-1.768c-1.56-.418-7.814-.418-7.814-.418s-6.254,0-7.814.418a2.5,2.5,0,0,0-1.768,1.768,26.039,26.039,0,0,0-.418,4.814,26.04,26.04,0,0,0,.418,4.814,2.506,2.506,0,0,0,1.768,1.768c1.56.418,7.814.418,7.814.418s6.254,0,7.814-.418a2.506,2.506,0,0,0,1.768-1.768,26.02,26.02,0,0,0,.418-4.814A26.02,26.02,0,0,0,33.89,27.545ZM22.308,35.359v-6l5.2,3Z" fill="#a2a2a2"/>
    </g>
  </g>
</svg>
