<svg width="30" height="30" viewBox="0 0 30 30" fill="none" xmlns="http://www.w3.org/2000/svg">
<path d="M14.5679 28.8067C10.7646 28.8067 7.1889 27.3256 4.49955 24.6363C1.81019 21.9469 0.329102 18.3712 0.329102 14.5679C0.329102 10.7646 1.81019 7.1889 4.49955 4.49955C7.1889 1.81019 10.7646 0.329102 14.5679 0.329102C18.598 0.329102 22.3014 2.00793 25.2776 5.18407C27.4878 7.52039 28.8067 11.0279 28.8067 14.5679C28.8067 18.3712 27.3256 21.9469 24.6363 24.6363C21.9469 27.3256 18.3712 28.8067 14.5679 28.8067Z" fill="white"/>
<path d="M14.5679 0.658115C6.89801 0.658115 0.658115 6.89801 0.658115 14.5679C0.658115 22.2377 6.89801 28.4776 14.5679 28.4776C22.2377 28.4776 28.4776 22.2377 28.4776 14.5679C28.4776 11.1099 27.1924 7.68691 25.0375 5.40904C22.125 2.30095 18.5047 0.658115 14.5679 0.658115ZM14.5679 0C18.7516 0 22.5234 1.76359 25.5177 4.95903C27.633 7.19502 29.1357 10.706 29.1357 14.5679C29.1357 22.6135 22.6135 29.1357 14.5679 29.1357C6.52225 29.1357 0 22.6135 0 14.5679C0 6.52225 6.52225 0 14.5679 0Z" fill="#E2E2E2"/>
<path fill-rule="evenodd" clip-rule="evenodd" d="M15.0512 16.8386C15.405 16.8389 15.751 16.7342 16.0453 16.5378C16.3396 16.3414 16.5691 16.0622 16.7047 15.7353C16.8403 15.4085 16.8759 15.0488 16.807 14.7017C16.7382 14.3546 16.5679 14.0358 16.3178 13.7855C16.0677 13.5352 15.749 13.3647 15.4019 13.2956C15.0549 13.2265 14.6952 13.2618 14.3683 13.3972C14.0413 13.5325 13.7619 13.7618 13.5653 14.056C13.3687 14.3502 13.2637 14.696 13.2637 15.0499C13.2651 15.5236 13.4538 15.9776 13.7887 16.3127C14.1236 16.6478 14.5774 16.8369 15.0512 16.8386ZM15.0512 11.4724C15.7588 11.4721 16.4506 11.6817 17.0391 12.0746C17.6276 12.4676 18.0863 13.0262 18.3573 13.6799C18.6283 14.3336 18.6993 15.053 18.5614 15.747C18.4235 16.4411 18.0829 17.0786 17.5826 17.5791C17.0824 18.0796 16.4449 18.4204 15.7509 18.5586C15.0569 18.6967 14.3375 18.6259 13.6837 18.3552C13.03 18.0845 12.4711 17.6259 12.078 17.0376C11.6848 16.4492 11.475 15.7575 11.475 15.0499C11.4781 14.1024 11.8559 13.1946 12.5259 12.5246C13.1959 11.8546 14.1037 11.4768 15.0512 11.4737V11.4724ZM20.4174 21.3099H9.68622C9.4524 21.3077 9.22135 21.2592 9.00646 21.167C8.79158 21.0748 8.59716 20.9408 8.43448 20.7729C8.26668 20.6103 8.1328 20.4161 8.04062 20.2015C7.94843 19.9868 7.89977 19.756 7.89746 19.5224V11.4737C7.89885 10.9997 8.08775 10.5455 8.42291 10.2104C8.75807 9.87522 9.21224 9.68631 9.68622 9.68492H11.117L12.4582 8.34369C12.5976 8.20059 12.7645 8.08718 12.9488 8.01027C13.1332 7.93336 13.3312 7.89455 13.5309 7.89617H16.6609C17.0344 7.91168 17.3871 8.07222 17.6441 8.34369L18.9867 9.68492H20.4174C20.8914 9.68631 21.3456 9.87522 21.6808 10.2104C22.0159 10.5455 22.2048 10.9997 22.2062 11.4737V19.5224C22.2045 19.9962 22.0154 20.45 21.6803 20.7849C21.3452 21.1198 20.8912 21.3085 20.4174 21.3099Z" fill="#A696FF"/>
</svg>
