<svg width="82" height="28" viewBox="0 0 82 28" fill="none" xmlns="http://www.w3.org/2000/svg">
<path d="M0 14C0 6.26801 6.26801 0 14 0H68C75.732 0 82 6.26801 82 14C82 21.732 75.732 28 68 28H14C6.26801 28 0 21.732 0 14Z" fill="white"/>
<path d="M15.3333 7.33331H26.6666C27.2189 7.33331 27.6666 7.78103 27.6666 8.33331V19.9889C27.6666 20.8697 26.6102 21.3203 25.9745 20.7107L21.692 16.6042C21.3052 16.2332 20.6946 16.2332 20.3078 16.6042L16.0254 20.7107C15.3896 21.3203 14.3333 20.8697 14.3333 19.9889V8.33331C14.3333 7.78103 14.781 7.33331 15.3333 7.33331Z" stroke="#727272" stroke-width="1.5" stroke-linejoin="round"/>
<path d="M35.833 15.425C35.7897 15.4423 35.7377 15.4467 35.677 15.438C35.625 15.4207 35.5773 15.3773 35.534 15.308L35.066 14.502C35.0313 14.4327 35.027 14.372 35.053 14.32C35.0877 14.2593 35.1353 14.2203 35.196 14.203C35.846 13.9603 36.4137 13.7003 36.899 13.423C37.393 13.137 37.809 12.812 38.147 12.448C38.4937 12.084 38.7623 11.668 38.953 11.2C39.1523 10.732 39.2823 10.1903 39.343 9.575C39.3517 9.51433 39.369 9.45367 39.395 9.393C39.4297 9.33233 39.4817 9.30633 39.551 9.315L40.682 9.367C40.8293 9.37567 40.8987 9.471 40.89 9.653C40.8813 9.87833 40.8553 10.0907 40.812 10.29C40.916 10.706 41.098 11.1047 41.358 11.486C41.618 11.8673 41.9343 12.2183 42.307 12.539C42.6883 12.851 43.1087 13.1283 43.568 13.371C44.0273 13.6137 44.504 13.8043 44.998 13.943C45.0587 13.9603 45.0933 13.9993 45.102 14.06C45.1193 14.112 45.1193 14.1597 45.102 14.203L44.66 15.035C44.5907 15.165 44.4867 15.2127 44.348 15.178C43.9493 15.074 43.5463 14.9267 43.139 14.736C42.7403 14.5453 42.3547 14.3243 41.982 14.073C41.6093 13.813 41.267 13.527 40.955 13.215C40.643 12.8943 40.3787 12.552 40.162 12.188C39.7287 12.9507 39.1393 13.6007 38.394 14.138C37.6573 14.6753 36.8037 15.1043 35.833 15.425ZM45.752 17.609C45.7953 17.609 45.8387 17.6307 45.882 17.674C45.9253 17.7173 45.947 17.765 45.947 17.817V18.662C45.947 18.7053 45.9253 18.7487 45.882 18.792C45.8387 18.8353 45.7953 18.857 45.752 18.857H34.429C34.377 18.857 34.3337 18.8353 34.299 18.792C34.2643 18.7487 34.247 18.7053 34.247 18.662V17.817C34.247 17.6783 34.3077 17.609 34.429 17.609H45.752ZM48.2926 13.501C48.2926 13.3797 48.3489 13.319 48.4616 13.319C49.0423 13.319 49.6359 13.319 50.2426 13.319C50.8493 13.3103 51.4386 13.306 52.0106 13.306C52.5913 13.2973 53.1373 13.2887 53.6486 13.28C54.1686 13.2627 54.6366 13.241 55.0526 13.215C55.0699 12.8337 55.0829 12.474 55.0916 12.136C55.1003 11.798 55.1046 11.4947 55.1046 11.226C55.1046 11.0873 55.0873 10.9877 55.0526 10.927C55.0179 10.8577 54.9313 10.823 54.7926 10.823H48.3576C48.3143 10.823 48.2753 10.8057 48.2406 10.771C48.2059 10.7277 48.1886 10.6843 48.1886 10.641V9.783C48.1886 9.73967 48.2059 9.70067 48.2406 9.666C48.2753 9.62267 48.3143 9.601 48.3576 9.601H55.7416C55.9323 9.601 56.0839 9.627 56.1966 9.679C56.3179 9.731 56.4089 9.80467 56.4696 9.9C56.5389 9.98667 56.5823 10.0993 56.5996 10.238C56.6256 10.368 56.6429 10.511 56.6516 10.667C56.6776 11.4817 56.6429 12.4913 56.5476 13.696C56.4523 14.9007 56.3093 16.2093 56.1186 17.622H57.9776C58.0209 17.622 58.0643 17.6437 58.1076 17.687C58.1509 17.7303 58.1726 17.7737 58.1726 17.817V18.675C58.1726 18.7183 58.1509 18.7617 58.1076 18.805C58.0643 18.8483 58.0209 18.87 57.9776 18.87H46.6546C46.6026 18.87 46.5593 18.8483 46.5246 18.805C46.4899 18.7617 46.4726 18.7183 46.4726 18.675V17.817C46.4726 17.765 46.4899 17.7217 46.5246 17.687C46.5593 17.6437 46.6026 17.622 46.6546 17.622H54.6366C54.7059 17.258 54.7666 16.7943 54.8186 16.231C54.8793 15.659 54.9313 15.061 54.9746 14.437C54.0559 14.4803 53.0636 14.5107 51.9976 14.528C50.9316 14.5453 49.7529 14.554 48.4616 14.554C48.4183 14.554 48.3793 14.5367 48.3446 14.502C48.3099 14.4587 48.2926 14.411 48.2926 14.359V13.501ZM68.2532 8.886C68.2532 8.77333 68.3138 8.717 68.4352 8.717H69.5532C69.6658 8.717 69.7222 8.77333 69.7222 8.886V15.477C69.7222 15.5897 69.6658 15.646 69.5532 15.646H68.4222C68.3095 15.646 68.2532 15.5897 68.2532 15.477V13.033H67.1092V15.321C67.1092 15.4337 67.0528 15.49 66.9402 15.49H65.8742C65.7528 15.49 65.6922 15.4337 65.6922 15.321V9.094C65.6922 8.98133 65.7528 8.925 65.8742 8.925H66.9402C67.0528 8.925 67.1092 8.98133 67.1092 9.094V11.785H68.2532V8.886ZM68.2272 18.714H63.0012V19.416C63.0012 19.5633 63.0792 19.637 63.2352 19.637H67.9802C68.1448 19.637 68.2272 19.5633 68.2272 19.416V18.714ZM69.7222 19.988C69.7222 20.2827 69.6485 20.4993 69.5012 20.638C69.3625 20.7853 69.1068 20.859 68.7342 20.859H62.4942C62.1042 20.859 61.8398 20.794 61.7012 20.664C61.5625 20.534 61.4932 20.2957 61.4932 19.949V16.426C61.4932 16.3827 61.5105 16.348 61.5452 16.322C61.5885 16.2873 61.6318 16.27 61.6752 16.27H62.8062C62.8582 16.27 62.9015 16.2873 62.9362 16.322C62.9795 16.348 63.0012 16.3827 63.0012 16.426V17.505H68.2272V16.374C68.2272 16.3307 68.2445 16.2917 68.2792 16.257C68.3138 16.2223 68.3528 16.205 68.3962 16.205H69.5532C69.5965 16.205 69.6355 16.2223 69.6702 16.257C69.7048 16.2917 69.7222 16.3307 69.7222 16.374V19.988ZM65.0552 14.658C65.0812 14.7707 65.0118 14.8487 64.8472 14.892C64.5612 14.97 64.2275 15.0393 63.8462 15.1C63.4648 15.152 63.0705 15.1953 62.6632 15.23C62.2645 15.2647 61.8658 15.2907 61.4672 15.308C61.0772 15.3167 60.7218 15.3123 60.4012 15.295C60.0112 15.2777 59.7425 15.1997 59.5952 15.061C59.4565 14.9137 59.3872 14.684 59.3872 14.372V12.513C59.3872 12.201 59.4652 11.98 59.6212 11.85C59.7772 11.7113 60.0068 11.642 60.3102 11.642H62.5332C62.6025 11.642 62.6502 11.6333 62.6762 11.616C62.7022 11.59 62.7152 11.5337 62.7152 11.447V10.511C62.7152 10.4417 62.7065 10.394 62.6892 10.368C62.6718 10.3333 62.6198 10.316 62.5332 10.316H59.6342C59.5822 10.316 59.5345 10.2987 59.4912 10.264C59.4565 10.2293 59.4392 10.1903 59.4392 10.147V9.328C59.4392 9.28467 59.4565 9.25 59.4912 9.224C59.5345 9.18933 59.5822 9.172 59.6342 9.172H63.2482C63.6208 9.172 63.8592 9.24133 63.9632 9.38C64.0758 9.51 64.1322 9.73533 64.1322 10.056V11.941C64.1322 12.2703 64.0628 12.4957 63.9242 12.617C63.7942 12.7297 63.5602 12.786 63.2222 12.786H61.0122C60.8822 12.786 60.8172 12.8467 60.8172 12.968V13.904C60.8172 14.0513 60.8995 14.125 61.0642 14.125C61.3502 14.1337 61.6318 14.1337 61.9092 14.125C62.1865 14.1163 62.4682 14.099 62.7542 14.073C63.0402 14.047 63.3392 14.0123 63.6512 13.969C63.9718 13.9257 64.3142 13.8693 64.6782 13.8C64.7388 13.7827 64.7908 13.7913 64.8342 13.826C64.8775 13.852 64.9078 13.8997 64.9252 13.969L65.0552 14.658Z" fill="#727272"/>
<path d="M14 1H68V-1H14V1ZM68 27H14V29H68V27ZM14 27C6.8203 27 1 21.1797 1 14H-1C-1 22.2843 5.71573 29 14 29V27ZM81 14C81 21.1797 75.1797 27 68 27V29C76.2843 29 83 22.2843 83 14H81ZM68 1C75.1797 1 81 6.8203 81 14H83C83 5.71573 76.2843 -1 68 -1V1ZM14 -1C5.71573 -1 -1 5.71573 -1 14H1C1 6.8203 6.8203 1 14 1V-1Z" fill="#D6D6D6"/>
</svg>
