<svg width="64" height="30" viewBox="0 0 64 30" fill="none" xmlns="http://www.w3.org/2000/svg">
<rect x="0.5" y="0.5" width="63" height="29" rx="14.5" fill="white" stroke="#727272"/>
<path d="M27.96 16.178C28.044 16.1687 28.0953 16.178 28.114 16.206C28.142 16.2247 28.1607 16.2573 28.17 16.304L28.226 16.752C28.2353 16.808 28.226 16.85 28.198 16.878C28.1793 16.906 28.128 16.9293 28.044 16.948C27.288 17.0507 26.4433 17.1347 25.51 17.2C24.586 17.2653 23.6573 17.298 22.724 17.298H19.812C19.756 17.298 19.7047 17.2793 19.658 17.242C19.6207 17.2047 19.602 17.1627 19.602 17.116V16.696C19.602 16.64 19.6207 16.598 19.658 16.57C19.7047 16.542 19.756 16.528 19.812 16.528H22.234C22.43 16.528 22.626 16.528 22.822 16.528C23.0273 16.528 23.228 16.5233 23.424 16.514V15.562C23.0413 15.534 22.6913 15.4733 22.374 15.38C22.066 15.2773 21.7953 15.1513 21.562 15.002C21.338 14.8433 21.1607 14.6613 21.03 14.456C20.9087 14.2507 20.848 14.0267 20.848 13.784C20.848 13.5133 20.9227 13.2707 21.072 13.056C21.2307 12.832 21.4453 12.6453 21.716 12.496C21.9867 12.3373 22.304 12.216 22.668 12.132C23.0413 12.048 23.4473 12.006 23.886 12.006C24.3153 12.006 24.7167 12.0527 25.09 12.146C25.4633 12.23 25.7853 12.3513 26.056 12.51C26.3267 12.6593 26.5367 12.846 26.686 13.07C26.8447 13.2847 26.924 13.5227 26.924 13.784C26.924 14.0267 26.8587 14.2507 26.728 14.456C26.6067 14.6613 26.434 14.8433 26.21 15.002C25.986 15.1513 25.7153 15.2773 25.398 15.38C25.09 15.4733 24.754 15.534 24.39 15.562V16.486C24.9873 16.458 25.5753 16.4207 26.154 16.374C26.742 16.318 27.344 16.2527 27.96 16.178ZM29.78 17.354C29.78 17.4847 29.7147 17.55 29.584 17.55H29.01C28.8793 17.55 28.814 17.4847 28.814 17.354V9.248C28.814 9.11733 28.8793 9.052 29.01 9.052H29.584C29.7147 9.052 29.78 9.11733 29.78 9.248V13.574H31.712C31.768 13.574 31.8147 13.5927 31.852 13.63C31.8987 13.658 31.922 13.7 31.922 13.756V14.232C31.922 14.2787 31.8987 14.3207 31.852 14.358C31.8147 14.3953 31.768 14.414 31.712 14.414H29.78V17.354ZM21.352 18.418C21.352 18.362 21.3753 18.32 21.422 18.292C21.4687 18.264 21.5153 18.25 21.562 18.25H28.716C29.1547 18.25 29.4393 18.334 29.57 18.502C29.71 18.6607 29.78 18.9313 29.78 19.314V21.904C29.78 22.0347 29.7147 22.1 29.584 22.1H29.01C28.8793 22.1 28.814 22.0347 28.814 21.904V19.384C28.814 19.2533 28.7907 19.174 28.744 19.146C28.7067 19.1087 28.6227 19.09 28.492 19.09H21.562C21.5153 19.09 21.4687 19.076 21.422 19.048C21.3753 19.0107 21.352 18.9687 21.352 18.922V18.418ZM25.972 13.784C25.972 13.4573 25.776 13.21 25.384 13.042C24.992 12.8647 24.4927 12.776 23.886 12.776C23.5873 12.776 23.3073 12.7993 23.046 12.846C22.794 12.8833 22.5747 12.944 22.388 13.028C22.2013 13.112 22.052 13.2193 21.94 13.35C21.8373 13.4713 21.786 13.616 21.786 13.784C21.786 13.9427 21.8373 14.0873 21.94 14.218C22.052 14.3393 22.2013 14.4467 22.388 14.54C22.5747 14.624 22.794 14.6893 23.046 14.736C23.3073 14.7827 23.5873 14.806 23.886 14.806C24.4927 14.806 24.992 14.7173 25.384 14.54C25.776 14.3533 25.972 14.1013 25.972 13.784ZM27.708 11.348C27.708 11.4693 27.638 11.53 27.498 11.53H20.33C20.2833 11.53 20.2367 11.5113 20.19 11.474C20.1527 11.4367 20.134 11.39 20.134 11.334V10.928C20.134 10.872 20.1527 10.8253 20.19 10.788C20.2367 10.7507 20.2833 10.732 20.33 10.732H27.498C27.638 10.732 27.708 10.7927 27.708 10.914V11.348ZM25.664 9.878C25.664 10.0087 25.594 10.074 25.454 10.074H22.178C22.1313 10.074 22.0847 10.06 22.038 10.032C22.0007 9.99467 21.982 9.948 21.982 9.892V9.472C21.982 9.416 22.0007 9.36933 22.038 9.332C22.0753 9.29467 22.1173 9.276 22.164 9.276H25.454C25.594 9.276 25.664 9.34133 25.664 9.472V9.878ZM43.436 18.18C43.436 18.3107 43.3707 18.376 43.24 18.376H42.666C42.5353 18.376 42.47 18.3107 42.47 18.18V9.248C42.47 9.11733 42.5353 9.052 42.666 9.052H43.24C43.3707 9.052 43.436 9.11733 43.436 9.248V18.18ZM43.856 21.54C43.856 21.596 43.8327 21.638 43.786 21.666C43.7393 21.694 43.6927 21.708 43.646 21.708H36.632C36.1933 21.708 35.904 21.624 35.764 21.456C35.6333 21.2973 35.568 21.0267 35.568 20.644V17.9C35.568 17.7693 35.6333 17.704 35.764 17.704H36.338C36.4687 17.704 36.534 17.7693 36.534 17.9V20.574C36.534 20.7047 36.5527 20.784 36.59 20.812C36.6367 20.8493 36.7253 20.868 36.856 20.868H43.646C43.6927 20.868 43.7393 20.882 43.786 20.91C43.8327 20.9473 43.856 20.9893 43.856 21.036V21.54ZM40.006 12.93C40.006 13.4153 39.922 13.8633 39.754 14.274C39.586 14.6753 39.3527 15.0207 39.054 15.31C38.7553 15.5993 38.4007 15.828 37.99 15.996C37.5887 16.1547 37.15 16.234 36.674 16.234C36.2167 16.234 35.7873 16.1547 35.386 15.996C34.9847 15.8373 34.6347 15.6133 34.336 15.324C34.0467 15.0253 33.818 14.6753 33.65 14.274C33.482 13.8727 33.398 13.4247 33.398 12.93C33.398 12.4167 33.482 11.9547 33.65 11.544C33.818 11.1333 34.0467 10.7833 34.336 10.494C34.6347 10.2047 34.9847 9.98533 35.386 9.836C35.7873 9.68667 36.2167 9.612 36.674 9.612C37.1033 9.612 37.5187 9.68667 37.92 9.836C38.3213 9.98533 38.676 10.2047 38.984 10.494C39.292 10.774 39.5393 11.1193 39.726 11.53C39.9127 11.9407 40.006 12.4073 40.006 12.93ZM39.026 12.916C39.026 12.524 38.9607 12.1787 38.83 11.88C38.7087 11.572 38.5407 11.32 38.326 11.124C38.1113 10.9187 37.8593 10.7647 37.57 10.662C37.29 10.5593 36.9913 10.508 36.674 10.508C36.3473 10.508 36.044 10.5593 35.764 10.662C35.4933 10.7647 35.2507 10.9187 35.036 11.124C34.8307 11.32 34.6673 11.572 34.546 11.88C34.434 12.1787 34.378 12.524 34.378 12.916C34.378 13.2893 34.434 13.6253 34.546 13.924C34.658 14.2227 34.8167 14.4793 35.022 14.694C35.2273 14.8993 35.47 15.0627 35.75 15.184C36.03 15.296 36.338 15.352 36.674 15.352C36.9913 15.352 37.29 15.296 37.57 15.184C37.8593 15.0627 38.1113 14.8993 38.326 14.694C38.5407 14.4793 38.7087 14.2227 38.83 13.924C38.9607 13.6253 39.026 13.2893 39.026 12.916Z" fill="#727272"/>
</svg>
