<svg width="24" height="24" viewBox="0 0 24 24" fill="none" xmlns="http://www.w3.org/2000/svg">
<path d="M19.5972 18.5231C20.1335 17.9723 20.1335 17.1118 19.5972 16.561L16.2122 13.1187L16.2792 13.0843V4.30659C16.2792 3.54929 15.6759 2.92969 14.9386 2.92969H7.73284C6.9955 2.92969 6.39223 3.54929 6.39223 4.30659V13.0843L4.31429 15.2185C3.77805 15.7693 3.77805 16.6298 4.31429 17.1806L7.23011 20.1754C7.76635 20.7261 8.60423 20.7261 9.14048 20.1754L11.2854 17.9723L11.3525 18.0412L14.8045 21.5867C15.3408 22.1374 16.1787 22.1374 16.7149 21.5867L19.5972 18.5231Z" stroke="#727272" stroke-miterlimit="10" stroke-linecap="round" stroke-linejoin="round"/>
<path d="M7.13086 3.68701L16.4481 13.3597" stroke="#727272" stroke-miterlimit="10" stroke-linecap="round" stroke-linejoin="round"/>
<path d="M6.49219 12.844L15.2062 21.966" stroke="#727272" stroke-miterlimit="10" stroke-linecap="round" stroke-linejoin="round"/>
<path d="M15.8765 3.34219L11.3184 7.98923" stroke="#727272" stroke-miterlimit="10" stroke-linecap="round" stroke-linejoin="round"/>
</svg>
