<?xml version="1.0" encoding="utf-8"?>
<!-- Generator: Adobe Illustrator 17.0.0, SVG Export Plug-In . SVG Version: 6.00 Build 0)  -->
<!DOCTYPE svg PUBLIC "-//W3C//DTD SVG 1.1//EN" "http://www.w3.org/Graphics/SVG/1.1/DTD/svg11.dtd">
<svg version="1.1" id="레이어_1" xmlns="http://www.w3.org/2000/svg" xmlns:xlink="http://www.w3.org/1999/xlink" x="0px"
	 y="0px" width="24px" height="24px" viewBox="0 0 24 24" enable-background="new 0 0 24 24" xml:space="preserve">
<path fill="none" stroke="#674FEE" stroke-linecap="round" stroke-linejoin="round" stroke-miterlimit="10" d="M19.597,18.523
	c0.536-0.551,0.536-1.411,0-1.962l-3.385-3.442l0.067-0.034V4.307c0-0.757-0.603-1.377-1.341-1.377H7.733
	c-0.737,0-1.341,0.62-1.341,1.377v8.778l-2.078,2.134c-0.536,0.551-0.536,1.411,0,1.962l2.916,2.995c0.536,0.551,1.374,0.551,1.91,0
	l2.145-2.203l0.067,0.069l3.452,3.545c0.536,0.551,1.374,0.551,1.91,0L19.597,18.523z"/>
<path fill="none" stroke="#674FEE" stroke-linecap="round" stroke-linejoin="round" stroke-miterlimit="10" d="M7.131,3.687
	l9.317,9.673"/>
<path fill="none" stroke="#674FEE" stroke-linecap="round" stroke-linejoin="round" stroke-miterlimit="10" d="M6.492,12.844
	l8.714,9.122"/>
<path fill="none" stroke="#674FEE" stroke-linecap="round" stroke-linejoin="round" stroke-miterlimit="10" d="M15.877,3.342
	l-4.558,4.647"/>
</svg>
