<svg width="40" height="18" viewBox="0 0 40 18" fill="none" xmlns="http://www.w3.org/2000/svg">
<path d="M8.33701 4.20119C6.41533 4.12983 4.79833 5.65213 4.72803 7.60259V11.0516C4.72803 11.3846 4.98578 11.67 5.33731 11.67H11.3601C11.6882 11.67 11.9694 11.3846 11.9694 11.0516V7.60259C11.8757 5.62835 10.2587 4.12983 8.33701 4.20119Z" stroke="#727272" stroke-width="0.7" stroke-miterlimit="10" stroke-linecap="round"/>
<path d="M4.53997 11.6462H11.9689C12.5313 11.6462 13 12.1219 13 12.6928V13.9535C13 14.5243 12.5313 15.0001 11.9689 15.0001H4.53997C3.97753 15.0001 3.50879 14.5243 3.50879 13.9535V12.6928C3.50879 12.1219 3.97753 11.6462 4.53997 11.6462Z" stroke="#727272" stroke-width="0.7" stroke-miterlimit="10" stroke-linecap="round"/>
<path d="M8.33594 2.82253V1.53809" stroke="#727272" stroke-width="0.7" stroke-miterlimit="10" stroke-linecap="round"/>
<path d="M4.46973 2.96521L5.36027 3.86908" stroke="#727272" stroke-width="0.7" stroke-miterlimit="10" stroke-linecap="round"/>
<path d="M12.2738 2.96521L11.3833 3.86908" stroke="#727272" stroke-width="0.7" stroke-miterlimit="10" stroke-linecap="round"/>
<path d="M7.68017 6.31812C7.09429 6.5084 6.71936 7.05548 6.71936 7.65013V8.74429" stroke="#727272" stroke-width="0.7" stroke-miterlimit="10" stroke-linecap="round"/>
<path d="M21.048 4.904C21.048 5.19 21.0297 5.46867 20.993 5.74C20.9637 6.01133 20.9197 6.27533 20.861 6.532C20.949 6.83267 21.0737 7.13333 21.235 7.434C21.4037 7.72733 21.598 8.00967 21.818 8.281C22.0453 8.545 22.291 8.787 22.555 9.007C22.819 9.21967 23.0903 9.392 23.369 9.524C23.413 9.546 23.4313 9.57533 23.424 9.612C23.424 9.64867 23.4167 9.68533 23.402 9.722L23.182 10.085C23.16 10.1217 23.1343 10.1473 23.105 10.162C23.0757 10.1767 23.028 10.1657 22.962 10.129C22.7493 10.0263 22.5257 9.87967 22.291 9.689C22.0637 9.49833 21.8363 9.28933 21.609 9.062C21.389 8.82733 21.1837 8.58167 20.993 8.325C20.8023 8.061 20.6447 7.808 20.52 7.566C20.2707 8.16 19.9407 8.70267 19.53 9.194C19.1267 9.678 18.65 10.0997 18.1 10.459C18.0633 10.481 18.023 10.4957 17.979 10.503C17.935 10.5103 17.8983 10.4957 17.869 10.459L17.594 10.096C17.572 10.0667 17.5683 10.03 17.583 9.986C17.5977 9.942 17.6233 9.909 17.66 9.887C18.056 9.645 18.4153 9.34433 18.738 8.985C19.068 8.62567 19.3467 8.22967 19.574 7.797C19.8087 7.36433 19.9847 6.90233 20.102 6.411C20.2267 5.91233 20.2853 5.40633 20.278 4.893C20.278 4.77567 20.322 4.717 20.41 4.717L20.927 4.75C21.0077 4.75 21.048 4.80133 21.048 4.904ZM26.185 14.21C26.185 14.254 26.1667 14.287 26.13 14.309C26.0933 14.331 26.0567 14.342 26.02 14.342H20.509C20.1643 14.342 19.937 14.276 19.827 14.144C19.7243 14.0193 19.673 13.8067 19.673 13.506V11.35C19.673 11.2473 19.7243 11.196 19.827 11.196H20.278C20.3807 11.196 20.432 11.2473 20.432 11.35V13.451C20.432 13.5537 20.4467 13.616 20.476 13.638C20.5127 13.6673 20.5823 13.682 20.685 13.682H26.02C26.0567 13.682 26.0933 13.693 26.13 13.715C26.1667 13.7443 26.185 13.7773 26.185 13.814V14.21ZM25.855 11.57C25.855 11.6727 25.8037 11.724 25.701 11.724H25.25C25.1473 11.724 25.096 11.6727 25.096 11.57V4.552C25.096 4.44933 25.1473 4.398 25.25 4.398H25.701C25.8037 4.398 25.855 4.44933 25.855 4.552V11.57ZM37.1897 12.142C37.2264 12.142 37.2631 12.1567 37.2997 12.186C37.3364 12.208 37.3547 12.241 37.3547 12.285V12.659C37.3547 12.6957 37.3364 12.7287 37.2997 12.758C37.2631 12.7873 37.2264 12.802 37.1897 12.802H27.8397C27.7957 12.802 27.7554 12.7873 27.7187 12.758C27.6894 12.7287 27.6747 12.6957 27.6747 12.659V12.285C27.6747 12.241 27.6894 12.208 27.7187 12.186C27.7554 12.1567 27.7957 12.142 27.8397 12.142H31.7557V8.765C31.7557 8.721 31.7667 8.68433 31.7887 8.655C31.8181 8.61833 31.8547 8.6 31.8987 8.6H32.3717C32.4084 8.6 32.4414 8.61833 32.4707 8.655C32.5001 8.68433 32.5147 8.721 32.5147 8.765V12.142H37.1897ZM29.0607 5.289C29.0607 5.245 29.0791 5.212 29.1157 5.19C29.1524 5.168 29.1891 5.157 29.2257 5.157H35.0887C35.2647 5.157 35.4041 5.17533 35.5067 5.212C35.6167 5.24867 35.7011 5.30367 35.7597 5.377C35.8184 5.443 35.8587 5.531 35.8807 5.641C35.9027 5.751 35.9174 5.883 35.9247 6.037C35.9321 6.33767 35.9321 6.675 35.9247 7.049C35.9174 7.423 35.8991 7.81167 35.8697 8.215C35.8404 8.61833 35.8001 9.02533 35.7487 9.436C35.6974 9.84667 35.6351 10.239 35.5617 10.613C35.5544 10.657 35.5361 10.6973 35.5067 10.734C35.4774 10.7707 35.4407 10.7853 35.3967 10.778L34.9567 10.745C34.8321 10.7377 34.7881 10.6717 34.8247 10.547C34.8907 10.261 34.9494 9.91267 35.0007 9.502C35.0521 9.084 35.0924 8.66233 35.1217 8.237C35.1584 7.80433 35.1804 7.39367 35.1877 7.005C35.2024 6.609 35.1987 6.29 35.1767 6.048C35.1621 5.94533 35.1401 5.883 35.1107 5.861C35.0887 5.83167 35.0264 5.817 34.9237 5.817H29.2257C29.1891 5.817 29.1524 5.806 29.1157 5.784C29.0791 5.75467 29.0607 5.72167 29.0607 5.685V5.289Z" fill="#727272"/>
</svg>
