<svg width="82" height="28" viewBox="0 0 82 28" fill="none" xmlns="http://www.w3.org/2000/svg">
<path d="M0 14C0 6.26801 6.26801 0 14 0H68C75.732 0 82 6.26801 82 14C82 21.732 75.732 28 68 28H14C6.26801 28 0 21.732 0 14Z" fill="white"/>
<path d="M28.556 8.95123L28.5559 8.95129L28.5627 8.96144C29.555 10.4409 29.7123 12.6331 28.8782 14.6638C28.0949 16.5475 26.7677 18.0978 25.3068 19.1846C23.8379 20.2774 22.297 20.856 21.1127 20.8889H21.1126H21.1123H21.1121H21.1119H21.1117H21.1115H21.1113H21.1111H21.1109H21.1107H21.1105H21.1103H21.1101H21.1099H21.1097H21.1095H21.1093H21.1091H21.1089H21.1086H21.1084H21.1082H21.108H21.1078H21.1076H21.1074H21.1072H21.107H21.1068H21.1066H21.1064H21.1062H21.106H21.1058H21.1056H21.1054H21.1052H21.1049H21.1047H21.1045H21.1043H21.1041H21.1039H21.1037H21.1035H21.1033H21.1031H21.1029H21.1027H21.1025H21.1023H21.1021H21.1019H21.1017H21.1015H21.1013H21.101H21.1008H21.1006H21.1004H21.1002H21.1H21.0998H21.0996H21.0994H21.0992H21.099H21.0988H21.0986H21.0984H21.0982H21.098H21.0978H21.0976H21.0974H21.0971H21.0969H21.0967H21.0965H21.0963H21.0961H21.0959H21.0957H21.0955H21.0953H21.0951H21.0949H21.0947H21.0945H21.0943H21.0941H21.0939H21.0937H21.0934H21.0932H21.093H21.0928H21.0926H21.0924H21.0922H21.092H21.0918H21.0916H21.0914H21.0912H21.091H21.0908H21.0906H21.0904H21.0902H21.09H21.0898H21.0895H21.0893H21.0891H21.0889H21.0887H21.0885H21.0883H21.0881H21.0879H21.0877H21.0875H21.0873H21.0871H21.0869H21.0867H21.0865H21.0863H21.0861H21.0858H21.0856H21.0854H21.0852H21.085H21.0848H21.0846H21.0844H21.0842H21.084H21.0838H21.0836H21.0834H21.0832H21.083H21.0828H21.0826H21.0824H21.0821H21.0819H21.0817H21.0815H21.0813H21.0811H21.0809H21.0807H21.0805H21.0803H21.0801H21.0799H21.0797H21.0795H21.0793H21.0791H21.0789H21.0787H21.0785H21.0782H21.078H21.0778H21.0776H21.0774H21.0772H21.077H21.0768H21.0766H21.0764H21.0762H21.076H21.0758H21.0756H21.0754H21.0752H21.075H21.0748H21.0745H21.0743H21.0741H21.0739H21.0737H21.0735H21.0733H21.0731H21.0729H21.0727H21.0725H21.0723H21.0721H21.0719H21.0717H21.0715H21.0713H21.0711H21.0709H21.0706H21.0704H21.0702H21.07H21.0698H21.0696H21.0694H21.0692H21.069H21.0688H21.0686H21.0684H21.0682H21.068H21.0678H21.0676H21.0674H21.0672H21.0669H21.0667H21.0665H21.0663H21.0661H21.0659H21.0657H21.0655H21.0653H21.0651H21.0649H21.0647H21.0645H21.0643H21.0641H21.0639H21.0637H21.0635H21.0633H21.063H21.0628H21.0626H21.0624H21.0622H21.062H21.0618H21.0616H21.0614H21.0612H21.061H21.0608H21.0606H21.0604H21.0602H21.06H21.0598H21.0596H21.0594H21.0591H21.0589H21.0587H21.0585H21.0583H21.0581H21.0579H21.0577H21.0575H21.0573H21.0571H21.0569H21.0567H21.0565H21.0563H21.0561H21.0559H21.0557H21.0554H21.0552H21.055H21.0548H21.0546H21.0544H21.0542H21.054H21.0538H21.0536H21.0534H21.0532H21.053H21.0528H21.0526H21.0524H21.0522H21.052H21.0517H21.0515H21.0513H21.0511H21.0509H21.0507H21.0505H21.0503H21.0501H21.0499H21.0497H21.0495H21.0493H21.0491H21.0489H21.0487H21.0485H21.0483H21.0481H21.0478H21.0476H21.0474H21.0472H21.047H21.0468H21.0466H21.0464H21.0462H21.046H21.0458H21.0456H21.0454H21.0452H21.045H21.0448H21.0446H21.0444H21.0441H21.0439H21.0437H21.0435H21.0433H21.0431H21.0429H21.0427H21.0425H21.0423H21.0421H21.0419H21.0417H21.0415H21.0413H21.0411H21.0409H21.0407H21.0405H21.0402H21.04H21.0398H21.0396H21.0394H21.0392H21.039H21.0388H21.0386H21.0384H21.0382H21.038H21.0378H21.0376H21.0374H21.0372H21.037H21.0368H21.0365H21.0363H21.0361H21.0359H21.0357H21.0355H21.0353H21.0351H21.0349H21.0347H21.0345H21.0343H21.0341H21.0339H21.0337H21.0335H21.0333H21.0331H21.0329H21.0326H21.0324H21.0322H21.032H21.0318H21.0316H21.0314H21.0312H21.031H21.0308H21.0306H21.0304H21.0302H21.03H21.0298H21.0296H21.0294H21.0292H21.0289H21.0287H21.0285H21.0283H21.0281H21.0279H21.0277H21.0275H21.0273H21.0271H21.0269H21.0267H21.0265H21.0263H21.0261H21.0259H21.0257H21.0255H21.0253H21.025H21.0248H21.0246H21.0244H21.0242H21.024H21.0238H21.0236H21.0234H21.0232H21.023H21.0228H21.0226H21.0224H21.0222H21.022H21.0218H21.0216H21.0213H21.0211H21.0209H21.0207H21.0205H21.0203H21.0201H21.0199H21.0197H21.0195H21.0193H21.0191H21.0189H21.0187H21.0185H21.0183H21.0181H21.0179H21.0177H21.0174H20.9824H20.9822H20.982H20.9818H20.9816H20.9814H20.9812H20.981H20.9807H20.9805H20.9803H20.9801H20.9799H20.9797H20.9795H20.9793H20.9791H20.9789H20.9787H20.9785H20.9783H20.9781H20.9779H20.9777H20.9775H20.9773H20.977H20.9768H20.9766H20.9764H20.9762H20.976H20.9758H20.9756H20.9754H20.9752H20.975H20.9748H20.9746H20.9744H20.9742H20.974H20.9738H20.9736H20.9734H20.9731H20.9729H20.9727H20.9725H20.9723H20.9721H20.9719H20.9717H20.9715H20.9713H20.9711H20.9709H20.9707H20.9705H20.9703H20.9701H20.9699H20.9697H20.9694H20.9692H20.969H20.9688H20.9686H20.9684H20.9682H20.968H20.9678H20.9676H20.9674H20.9672H20.967H20.9668H20.9666H20.9664H20.9662H20.966H20.9658H20.9655H20.9653H20.9651H20.9649H20.9647H20.9645H20.9643H20.9641H20.9639H20.9637H20.9635H20.9633H20.9631H20.9629H20.9627H20.9625H20.9623H20.9621H20.9618H20.9616H20.9614H20.9612H20.961H20.9608H20.9606H20.9604H20.9602H20.96H20.9598H20.9596H20.9594H20.9592H20.959H20.9588H20.9586H20.9584H20.9582H20.9579H20.9577H20.9575H20.9573H20.9571H20.9569H20.9567H20.9565H20.9563H20.9561H20.9559H20.9557H20.9555H20.9553H20.9551H20.9549H20.9547H20.9545H20.9542H20.954H20.9538H20.9536H20.9534H20.9532H20.953H20.9528H20.9526H20.9524H20.9522H20.952H20.9518H20.9516H20.9514H20.9512H20.951H20.9508H20.9506H20.9503H20.9501H20.9499H20.9497H20.9495H20.9493H20.9491H20.9489H20.9487H20.9485H20.9483H20.9481H20.9479H20.9477H20.9475H20.9473H20.9471H20.9469H20.9466H20.9464H20.9462H20.946H20.9458H20.9456H20.9454H20.9452H20.945H20.9448H20.9446H20.9444H20.9442H20.944H20.9438H20.9436H20.9434H20.9432H20.943H20.9427H20.9425H20.9423H20.9421H20.9419H20.9417H20.9415H20.9413H20.9411H20.9409H20.9407H20.9405H20.9403H20.9401H20.9399H20.9397H20.9395H20.9393H20.939H20.9388H20.9386H20.9384H20.9382H20.938H20.9378H20.9376H20.9374H20.9372H20.937H20.9368H20.9366H20.9364H20.9362H20.936H20.9358H20.9356H20.9354H20.9351H20.9349H20.9347H20.9345H20.9343H20.9341H20.9339H20.9337H20.9335H20.9333H20.9331H20.9329H20.9327H20.9325H20.9323H20.9321H20.9319H20.9317H20.9314H20.9312H20.931H20.9308H20.9306H20.9304H20.9302H20.93H20.9298H20.9296H20.9294H20.9292H20.929H20.9288H20.9286H20.9284H20.9282H20.928H20.9278H20.9275H20.9273H20.9271H20.9269H20.9267H20.9265H20.9263H20.9261H20.9259H20.9257H20.9255H20.9253H20.9251H20.9249H20.9247H20.9245H20.9243H20.9241H20.9238H20.9236H20.9234H20.9232H20.923H20.9228H20.9226H20.9224H20.9222H20.922H20.9218H20.9216H20.9214H20.9212H20.921H20.9208H20.9206H20.9204H20.9202H20.9199H20.9197H20.9195H20.9193H20.9191H20.9189H20.9187H20.9185H20.9183H20.9181H20.9179H20.9177H20.9175H20.9173H20.9171H20.9169H20.9167H20.9165H20.9162H20.916H20.9158H20.9156H20.9154H20.9152H20.915H20.9148H20.9146H20.9144H20.9142H20.914H20.9138H20.9136H20.9134H20.9132H20.913H20.9128H20.9125H20.9123H20.9121H20.9119H20.9117H20.9115H20.9113H20.9111H20.9109H20.9107H20.9105H20.9103H20.9101H20.9099H20.9097H20.9095H20.9093H20.9091H20.9089H20.9086H20.9084H20.9082H20.908H20.9078H20.9076H20.9074H20.9072H20.907H20.9068H20.9066H20.9064H20.9062H20.906H20.9058H20.9056H20.9054H20.9052H20.905H20.9047H20.9045H20.9043H20.9041H20.9039H20.9037H20.9035H20.9033H20.9031H20.9029H20.9027H20.9025H20.9023H20.9021H20.9019H20.9017H20.9015H20.9013H20.901H20.9008H20.9006H20.9004H20.9002H20.9H20.8998H20.8996H20.8994H20.8992H20.899H20.8988H20.8986H20.8984H20.8982H20.898H20.8978H20.8976H20.8973H20.8971H20.8969H20.8967H20.8965H20.8963H20.8961H20.8959H20.8957H20.8955H20.8953H20.8951H20.8949H20.8947H20.8945H20.8943H20.8941H20.8939H20.8937H20.8934H20.8932H20.893H20.8928H20.8926H20.8924H20.8922H20.8921C19.7021 20.8395 18.1683 20.258 16.7059 19.1712C15.2496 18.089 13.9216 16.5468 13.1207 14.6615C12.289 12.6347 12.4426 10.4746 13.441 8.95562L13.441 8.95563L13.4438 8.95123C14.2172 7.75647 15.4176 7.11115 16.8107 7.11115C18.5343 7.11115 19.6912 8.02296 20.3954 9.06833L21.0314 10.0123L21.6479 9.05554C22.3124 8.02431 23.4637 7.11115 25.1892 7.11115C26.6142 7.11115 27.7809 7.75386 28.556 8.95123Z" stroke="#727272" stroke-width="1.5"/>
<path d="M35.846 12.721C35.6813 12.747 35.5773 12.6993 35.534 12.578L35.326 11.889C35.3087 11.837 35.3173 11.785 35.352 11.733C35.3953 11.681 35.4387 11.6507 35.482 11.642C36.6867 11.434 37.7353 11.2087 38.628 10.966C39.5207 10.7233 40.3093 10.4417 40.994 10.121C41.1067 10.069 41.1717 10.0213 41.189 9.978C41.215 9.926 41.1543 9.9 41.007 9.9H36.379C36.2663 9.9 36.21 9.84367 36.21 9.731V8.938C36.21 8.82533 36.2663 8.769 36.379 8.769H42.463C42.801 8.769 43.0783 8.81667 43.295 8.912C43.5117 9.00733 43.62 9.15467 43.62 9.354C43.62 9.54467 43.5637 9.70933 43.451 9.848C43.3383 9.978 43.243 10.082 43.165 10.16C43.0177 10.2987 42.8357 10.4373 42.619 10.576C42.411 10.706 42.1683 10.8447 41.891 10.992C42.1077 11.044 42.346 11.096 42.606 11.148C42.866 11.1913 43.1303 11.2347 43.399 11.278C43.6677 11.3213 43.932 11.3647 44.192 11.408C44.452 11.4427 44.6947 11.473 44.92 11.499C44.9807 11.5163 45.0327 11.5467 45.076 11.59C45.1193 11.6247 45.128 11.6767 45.102 11.746L44.868 12.396C44.8507 12.4393 44.816 12.4827 44.764 12.526C44.7207 12.5693 44.6643 12.5823 44.595 12.565C44.2743 12.5303 43.9277 12.4827 43.555 12.422C43.1823 12.3613 42.801 12.292 42.411 12.214C42.021 12.1273 41.631 12.0407 41.241 11.954C40.8597 11.8673 40.5 11.7807 40.162 11.694C39.512 11.9193 38.8187 12.123 38.082 12.305C37.354 12.487 36.6087 12.6257 35.846 12.721ZM40.097 21.548C39.655 21.548 39.2477 21.509 38.875 21.431C38.5023 21.3617 38.1773 21.2577 37.9 21.119C37.6313 20.9803 37.419 20.8113 37.263 20.612C37.1157 20.4213 37.042 20.2047 37.042 19.962C37.042 19.7193 37.1157 19.5027 37.263 19.312C37.419 19.1213 37.6313 18.961 37.9 18.831C38.1773 18.6923 38.5023 18.5883 38.875 18.519C39.2477 18.441 39.655 18.402 40.097 18.402C40.539 18.402 40.9463 18.441 41.319 18.519C41.6917 18.5883 42.0123 18.6923 42.281 18.831C42.5497 18.961 42.7577 19.1213 42.905 19.312C43.061 19.5027 43.139 19.7193 43.139 19.962C43.139 20.2047 43.061 20.4213 42.905 20.612C42.7577 20.8113 42.5497 20.9803 42.281 21.119C42.0123 21.2577 41.6917 21.3617 41.319 21.431C40.9463 21.509 40.539 21.548 40.097 21.548ZM45.934 14.502C45.934 14.5453 45.9123 14.5887 45.869 14.632C45.8257 14.6753 45.7823 14.697 45.739 14.697H34.429C34.377 14.697 34.3337 14.6753 34.299 14.632C34.2643 14.5887 34.247 14.5453 34.247 14.502V13.735C34.247 13.683 34.2643 13.6397 34.299 13.605C34.3337 13.5617 34.377 13.54 34.429 13.54H39.369V12.513C39.369 12.3917 39.4297 12.331 39.551 12.331H40.682C40.8033 12.331 40.864 12.3917 40.864 12.513V13.54H45.687C45.7303 13.54 45.7823 13.5617 45.843 13.605C45.9037 13.6483 45.934 13.6917 45.934 13.735V14.502ZM44.322 17.817C44.322 17.869 44.3003 17.9167 44.257 17.96C44.2223 17.9947 44.179 18.012 44.127 18.012H36.041C35.9977 18.012 35.9543 17.9903 35.911 17.947C35.8677 17.9037 35.846 17.856 35.846 17.804V17.128C35.846 17.0847 35.8677 17.0413 35.911 16.998C35.963 16.9547 36.0107 16.933 36.054 16.933H44.127C44.179 16.933 44.2223 16.9547 44.257 16.998C44.3003 17.0327 44.322 17.076 44.322 17.128V17.817ZM42.19 16.257C42.19 16.309 42.1683 16.3567 42.125 16.4C42.0903 16.4433 42.0427 16.465 41.982 16.465H38.199C38.1643 16.465 38.121 16.4477 38.069 16.413C38.0257 16.3783 38.004 16.3307 38.004 16.27V15.542C38.004 15.4727 38.0257 15.4207 38.069 15.386C38.121 15.3513 38.1643 15.334 38.199 15.334H41.982C42.034 15.334 42.0817 15.3557 42.125 15.399C42.1683 15.4423 42.19 15.4943 42.19 15.555V16.257ZM40.097 19.39C39.8977 19.39 39.707 19.403 39.525 19.429C39.3517 19.455 39.1957 19.494 39.057 19.546C38.9183 19.598 38.8057 19.6587 38.719 19.728C38.641 19.7973 38.602 19.8753 38.602 19.962C38.602 20.0573 38.641 20.1397 38.719 20.209C38.8057 20.2783 38.9183 20.3347 39.057 20.378C39.1957 20.43 39.3517 20.469 39.525 20.495C39.707 20.521 39.8977 20.534 40.097 20.534C40.2877 20.534 40.4697 20.521 40.643 20.495C40.825 20.469 40.9853 20.43 41.124 20.378C41.2627 20.3347 41.371 20.2783 41.449 20.209C41.5357 20.1397 41.579 20.0573 41.579 19.962C41.579 19.8753 41.5357 19.7973 41.449 19.728C41.371 19.6587 41.2627 19.598 41.124 19.546C40.9853 19.494 40.825 19.455 40.643 19.429C40.4697 19.403 40.2877 19.39 40.097 19.39ZM58.3416 14.541C58.3416 14.593 58.3199 14.6363 58.2766 14.671C58.2419 14.7057 58.2029 14.723 58.1596 14.723H56.4046V20.885C56.4046 20.937 56.3829 20.976 56.3396 21.002C56.3049 21.0367 56.2659 21.054 56.2226 21.054H55.0786C54.9573 21.054 54.8966 20.9977 54.8966 20.885V8.886C54.8966 8.77333 54.9573 8.717 55.0786 8.717H56.2226C56.2659 8.717 56.3049 8.73433 56.3396 8.769C56.3829 8.80367 56.4046 8.84267 56.4046 8.886V13.475H58.1596C58.2029 13.475 58.2419 13.4923 58.2766 13.527C58.3199 13.553 58.3416 13.5877 58.3416 13.631V14.541ZM52.0106 13.748C52.0106 13.3493 51.9716 12.9723 51.8936 12.617C51.8156 12.2617 51.7029 11.954 51.5556 11.694C51.4083 11.4253 51.2263 11.213 51.0096 11.057C50.7929 10.901 50.5459 10.823 50.2686 10.823C49.9999 10.823 49.7573 10.901 49.5406 11.057C49.3326 11.213 49.1549 11.4253 49.0076 11.694C48.8603 11.954 48.7476 12.2617 48.6696 12.617C48.5916 12.9723 48.5526 13.3493 48.5526 13.748C48.5526 14.138 48.5916 14.5107 48.6696 14.866C48.7476 15.2213 48.8603 15.5333 49.0076 15.802C49.1549 16.0707 49.3326 16.2873 49.5406 16.452C49.7573 16.608 49.9999 16.686 50.2686 16.686C50.5459 16.686 50.7929 16.608 51.0096 16.452C51.2263 16.2873 51.4083 16.0707 51.5556 15.802C51.7029 15.5333 51.8156 15.2213 51.8936 14.866C51.9716 14.5107 52.0106 14.138 52.0106 13.748ZM50.2686 18.012C49.7746 18.012 49.3283 17.9123 48.9296 17.713C48.5309 17.505 48.1929 17.2147 47.9156 16.842C47.6469 16.4693 47.4389 16.023 47.2916 15.503C47.1443 14.983 47.0706 14.4067 47.0706 13.774C47.0706 13.124 47.1443 12.5347 47.2916 12.006C47.4389 11.4773 47.6469 11.031 47.9156 10.667C48.1929 10.2943 48.5309 10.0083 48.9296 9.809C49.3283 9.601 49.7746 9.497 50.2686 9.497C50.7713 9.497 51.2176 9.59667 51.6076 9.796C52.0063 9.99533 52.3443 10.2813 52.6216 10.654C52.8989 11.018 53.1113 11.4643 53.2586 11.993C53.4059 12.513 53.4796 13.098 53.4796 13.748C53.4796 14.398 53.4059 14.9873 53.2586 15.516C53.1113 16.036 52.8989 16.4823 52.6216 16.855C52.3443 17.2277 52.0063 17.5137 51.6076 17.713C51.2176 17.9123 50.7713 18.012 50.2686 18.012ZM64.5352 15.061C63.9632 15.061 63.4215 15.0003 62.9102 14.879C62.3988 14.7577 61.9482 14.58 61.5582 14.346C61.1682 14.1033 60.8605 13.8043 60.6352 13.449C60.4098 13.0937 60.2972 12.6863 60.2972 12.227C60.2972 11.7763 60.4098 11.3777 60.6352 11.031C60.8605 10.6757 61.1682 10.3767 61.5582 10.134C61.9482 9.89133 62.3988 9.70933 62.9102 9.588C63.4215 9.46667 63.9632 9.406 64.5352 9.406C65.1158 9.406 65.6618 9.46667 66.1732 9.588C66.6932 9.70933 67.1438 9.89133 67.5252 10.134C67.9152 10.3767 68.2228 10.6757 68.4482 11.031C68.6735 11.3777 68.7862 11.7763 68.7862 12.227C68.7862 12.6863 68.6735 13.0937 68.4482 13.449C68.2228 13.8043 67.9152 14.1033 67.5252 14.346C67.1438 14.58 66.6932 14.7577 66.1732 14.879C65.6618 15.0003 65.1158 15.061 64.5352 15.061ZM64.5482 10.641C64.2015 10.641 63.8635 10.68 63.5342 10.758C63.2135 10.8273 62.9275 10.9313 62.6762 11.07C62.4248 11.2 62.2212 11.3647 62.0652 11.564C61.9178 11.7633 61.8442 11.9887 61.8442 12.24C61.8442 12.5 61.9178 12.7297 62.0652 12.929C62.2212 13.1283 62.4248 13.2973 62.6762 13.436C62.9275 13.566 63.2135 13.67 63.5342 13.748C63.8635 13.8173 64.2015 13.852 64.5482 13.852C64.8862 13.852 65.2155 13.8173 65.5362 13.748C65.8655 13.67 66.1558 13.566 66.4072 13.436C66.6585 13.2973 66.8578 13.1283 67.0052 12.929C67.1612 12.7297 67.2392 12.5 67.2392 12.24C67.2392 11.9887 67.1612 11.7633 67.0052 11.564C66.8578 11.3647 66.6585 11.2 66.4072 11.07C66.1558 10.9313 65.8655 10.8273 65.5362 10.758C65.2155 10.68 64.8862 10.641 64.5482 10.641ZM70.3982 18.753C70.3982 18.7963 70.3765 18.8397 70.3332 18.883C70.2898 18.9263 70.2465 18.948 70.2032 18.948H58.8802C58.8282 18.948 58.7848 18.9263 58.7502 18.883C58.7155 18.8397 58.6982 18.7963 58.6982 18.753V17.908C58.6982 17.7693 58.7588 17.7 58.8802 17.7H61.4802V15.672C61.4802 15.5507 61.5452 15.49 61.6752 15.49H62.7932C62.9232 15.49 62.9882 15.5507 62.9882 15.672V17.7H66.0952V15.672C66.0952 15.5507 66.1602 15.49 66.2902 15.49H67.4082C67.4602 15.49 67.5035 15.5073 67.5382 15.542C67.5815 15.5767 67.6032 15.62 67.6032 15.672V17.7H70.2032C70.2465 17.7 70.2898 17.7217 70.3332 17.765C70.3765 17.8083 70.3982 17.856 70.3982 17.908V18.753Z" fill="#727272"/>
<path d="M14 1H68V-1H14V1ZM68 27H14V29H68V27ZM14 27C6.8203 27 1 21.1797 1 14H-1C-1 22.2843 5.71573 29 14 29V27ZM81 14C81 21.1797 75.1797 27 68 27V29C76.2843 29 83 22.2843 83 14H81ZM68 1C75.1797 1 81 6.8203 81 14H83C83 5.71573 76.2843 -1 68 -1V1ZM14 -1C5.71573 -1 -1 5.71573 -1 14H1C1 6.8203 6.8203 1 14 1V-1Z" fill="#D6D6D6"/>
</svg>
