<svg width="40" height="18" viewBox="0 0 40 18" fill="none" xmlns="http://www.w3.org/2000/svg">
<path d="M13.7284 13.6994C14.0905 13.3318 14.0905 12.7345 13.7284 12.3899L11.4198 10.0467L11.465 10.0008V4.07384C11.465 3.56844 11.0576 3.13196 10.537 3.13196H5.62551C5.12757 3.13196 4.69753 3.54547 4.69753 4.07384V10.0008L3.2716 11.4481C2.90947 11.8156 2.90947 12.4129 3.2716 12.7575L5.26337 14.7791C5.62551 15.1467 6.21399 15.1467 6.5535 14.7791L8.02469 13.2859L8.06996 13.3318L10.4239 15.721C10.786 16.0885 11.3745 16.0885 11.714 15.721L13.7284 13.6994Z" stroke="#727272" stroke-width="0.7" stroke-miterlimit="10" stroke-linecap="round" stroke-linejoin="round"/>
<path d="M5.21851 3.66034L11.5786 10.2075" stroke="#727272" stroke-width="0.7" stroke-miterlimit="10" stroke-linecap="round" stroke-linejoin="round"/>
<path d="M4.76538 9.86287L10.7407 16.0195" stroke="#727272" stroke-width="0.7" stroke-miterlimit="10" stroke-linecap="round" stroke-linejoin="round"/>
<path d="M11.194 3.4306L8.09314 6.57786" stroke="#727272" stroke-width="0.7" stroke-miterlimit="10" stroke-linecap="round" stroke-linejoin="round"/>
<path d="M22.598 5.707C22.532 5.795 22.4623 5.883 22.389 5.971C22.323 6.059 22.2497 6.14333 22.169 6.224C22.3743 6.42933 22.6017 6.61267 22.851 6.774C23.1003 6.93533 23.3533 7.07833 23.61 7.203C24.0207 6.95367 24.3617 6.697 24.633 6.433C24.9043 6.169 25.139 5.872 25.337 5.542C25.3737 5.48333 25.3847 5.432 25.37 5.388C25.3553 5.33667 25.3077 5.311 25.227 5.311H23.335C23.247 5.311 23.203 5.25967 23.203 5.157V4.805C23.203 4.717 23.2543 4.673 23.357 4.673H25.502C25.9127 4.673 26.162 4.75367 26.25 4.915C26.3453 5.07633 26.3123 5.29633 26.151 5.575C26.0557 5.73633 25.9567 5.89033 25.854 6.037C25.7587 6.18367 25.6523 6.323 25.535 6.455C25.6597 6.55033 25.8027 6.64567 25.964 6.741C26.1327 6.829 26.2977 6.917 26.459 7.005C26.6277 7.08567 26.789 7.159 26.943 7.225C27.1043 7.28367 27.2437 7.33133 27.361 7.368C27.4123 7.38267 27.4417 7.412 27.449 7.456C27.4637 7.5 27.4563 7.54767 27.427 7.599L27.24 7.918C27.196 7.99867 27.1117 8.00967 26.987 7.951C26.855 7.89967 26.7047 7.83733 26.536 7.764C26.3747 7.68333 26.2097 7.59533 26.041 7.5C25.8723 7.40467 25.7037 7.30933 25.535 7.214C25.3737 7.11133 25.227 7.00867 25.095 6.906C24.8383 7.14067 24.5413 7.36433 24.204 7.577C23.874 7.78233 23.478 7.99867 23.016 8.226C22.9207 8.27733 22.84 8.259 22.774 8.171L22.598 7.929C22.5613 7.885 22.5503 7.841 22.565 7.797C22.587 7.753 22.62 7.72 22.664 7.698C22.7153 7.676 22.763 7.654 22.807 7.632C22.851 7.61 22.895 7.588 22.939 7.566C22.7263 7.44133 22.5137 7.29833 22.301 7.137C22.0883 6.97567 21.894 6.81067 21.718 6.642C21.0507 7.192 20.2403 7.64667 19.287 8.006C19.2283 8.028 19.1807 8.04267 19.144 8.05C19.1147 8.05 19.0853 8.02433 19.056 7.973L18.891 7.654C18.8617 7.60267 18.8543 7.56233 18.869 7.533C18.891 7.49633 18.9203 7.47067 18.957 7.456C19.243 7.36067 19.529 7.23967 19.815 7.093C20.1083 6.939 20.3833 6.77767 20.64 6.609C20.8967 6.433 21.1277 6.25333 21.333 6.07C21.5383 5.88667 21.696 5.707 21.806 5.531C21.8427 5.47967 21.8537 5.432 21.839 5.388C21.8317 5.33667 21.7877 5.311 21.707 5.311H19.727C19.6317 5.311 19.584 5.25967 19.584 5.157V4.805C19.584 4.761 19.5987 4.728 19.628 4.706C19.6647 4.684 19.705 4.673 19.749 4.673H22.004C22.8913 4.673 23.0893 5.01767 22.598 5.707ZM28.01 10.03C28.01 10.0667 27.9917 10.0997 27.955 10.129C27.9183 10.1583 27.8817 10.173 27.845 10.173H18.495C18.451 10.173 18.4107 10.1583 18.374 10.129C18.3447 10.0997 18.33 10.0667 18.33 10.03V9.645C18.33 9.601 18.3447 9.568 18.374 9.546C18.4107 9.524 18.451 9.513 18.495 9.513H22.884V8.589C22.884 8.48633 22.9353 8.435 23.038 8.435H23.489C23.5917 8.435 23.643 8.48633 23.643 8.589V9.513H27.845C27.8817 9.513 27.9183 9.52767 27.955 9.557C27.9917 9.579 28.01 9.612 28.01 9.656V10.03ZM26.47 14.496C26.47 14.5987 26.4187 14.65 26.316 14.65H25.865C25.7623 14.65 25.711 14.5987 25.711 14.496V12.197C25.711 12.0943 25.6927 12.032 25.656 12.01C25.6267 11.9807 25.5607 11.966 25.458 11.966H19.793C19.7563 11.966 19.7197 11.955 19.683 11.933C19.6463 11.9037 19.628 11.8707 19.628 11.834V11.438C19.628 11.394 19.6463 11.361 19.683 11.339C19.7197 11.317 19.7563 11.306 19.793 11.306H25.634C25.9787 11.306 26.2023 11.372 26.305 11.504C26.415 11.6287 26.47 11.8413 26.47 12.142V14.496ZM34.9227 11.526C34.9007 11.5627 34.8714 11.5847 34.8347 11.592C34.8054 11.5993 34.7614 11.581 34.7027 11.537C34.5267 11.405 34.3397 11.2547 34.1417 11.086C33.9437 10.91 33.7494 10.7267 33.5587 10.536C33.3681 10.338 33.1811 10.1363 32.9977 9.931C32.8144 9.71833 32.6457 9.50933 32.4917 9.304C32.1251 9.766 31.7071 10.2097 31.2377 10.635C30.7684 11.053 30.2331 11.471 29.6317 11.889C29.5951 11.911 29.5584 11.9293 29.5217 11.944C29.4851 11.9513 29.4557 11.9403 29.4337 11.911L29.1697 11.57C29.1404 11.5333 29.1294 11.4967 29.1367 11.46C29.1441 11.416 29.1624 11.383 29.1917 11.361C30.3651 10.5323 31.2781 9.69267 31.9307 8.842C32.5907 7.99133 33.0491 7.104 33.3057 6.18C33.3351 6.07733 33.3351 6.004 33.3057 5.96C33.2837 5.90867 33.2214 5.883 33.1187 5.883H29.7857C29.6977 5.883 29.6537 5.83533 29.6537 5.74V5.355C29.6537 5.267 29.7051 5.223 29.8077 5.223H33.4157C33.7971 5.223 34.0391 5.289 34.1417 5.421C34.2444 5.553 34.2444 5.78767 34.1417 6.125C33.8557 7.06367 33.4524 7.92533 32.9317 8.71C33.1004 8.94467 33.2801 9.17567 33.4707 9.403C33.6614 9.63033 33.8521 9.84667 34.0427 10.052C34.2334 10.25 34.4241 10.4333 34.6147 10.602C34.8054 10.7633 34.9851 10.899 35.1537 11.009C35.1904 11.0383 35.2087 11.0713 35.2087 11.108C35.2087 11.1447 35.1977 11.1777 35.1757 11.207L34.9227 11.526ZM37.1997 14.386C37.1997 14.4887 37.1484 14.54 37.0457 14.54H36.5947C36.4921 14.54 36.4407 14.4887 36.4407 14.386V4.552C36.4407 4.44933 36.4921 4.398 36.5947 4.398H37.0457C37.1484 4.398 37.1997 4.44933 37.1997 4.552V14.386Z" fill="#727272"/>
</svg>
