<svg width="24" height="24" viewBox="0 0 24 24" fill="none" xmlns="http://www.w3.org/2000/svg">
<path d="M11.9457 16.5927C11.9457 16.5927 5.81956 16.5927 2.60156 16.5927C5.1998 16.5927 6.1056 15.5284 6.1056 9.78568C6.1056 4.04295 11.1114 3.66602 12.041 3.66602C12.9707 3.66602 17.9764 4.04295 17.9764 9.78568C17.9764 15.5284 18.9061 16.5927 21.4805 16.5927C18.2386 16.5927 12.1364 16.5927 12.1364 16.5927C12.1364 16.5927 11.9933 16.5927 11.9457 16.5927Z" stroke="#727272" stroke-miterlimit="10" stroke-linecap="round" stroke-linejoin="round"/>
<path d="M16.4469 16.5938C16.4469 19.0643 14.4762 21.1181 12.0418 21.1181C9.6364 21.1181 7.63672 19.094 7.63672 16.5938" stroke="#727272" stroke-miterlimit="10" stroke-linecap="round" stroke-linejoin="round"/>
<path d="M11.9805 1.51172V3.66203" stroke="#727272" stroke-miterlimit="10" stroke-linecap="round" stroke-linejoin="round"/>
</svg>
