<svg width="24" height="25" viewBox="0 0 24 25" fill="none" xmlns="http://www.w3.org/2000/svg">
<g clip-path="url(#clip0)">
<path d="M12 15.7387C13.6569 15.7387 15 14.4023 15 12.7538C15 11.1053 13.6569 9.76886 12 9.76886C10.3431 9.76886 9 11.1053 9 12.7538C9 14.4023 10.3431 15.7387 12 15.7387Z" stroke="#363636" stroke-width="2" stroke-linecap="round" stroke-linejoin="round"/>
<path d="M19.4 15.7387C19.2669 16.0388 19.2272 16.3717 19.286 16.6945C19.3448 17.0173 19.4995 17.3151 19.73 17.5496L19.79 17.6093C19.976 17.7941 20.1235 18.0136 20.2241 18.2551C20.3248 18.4967 20.3766 18.7557 20.3766 19.0172C20.3766 19.2787 20.3248 19.5376 20.2241 19.7792C20.1235 20.0208 19.976 20.2402 19.79 20.4251C19.6043 20.6101 19.3837 20.7569 19.1409 20.857C18.8981 20.9571 18.6378 21.0087 18.375 21.0087C18.1122 21.0087 17.8519 20.9571 17.6091 20.857C17.3663 20.7569 17.1457 20.6101 16.96 20.4251L16.9 20.3654C16.6643 20.136 16.365 19.9821 16.0406 19.9236C15.7162 19.8651 15.3816 19.9046 15.08 20.037C14.7842 20.1631 14.532 20.3726 14.3543 20.6395C14.1766 20.9065 14.0813 21.2193 14.08 21.5394V21.7086C14.08 22.2363 13.8693 22.7425 13.4942 23.1157C13.1191 23.4889 12.6104 23.6985 12.08 23.6985C11.5496 23.6985 11.0409 23.4889 10.6658 23.1157C10.2907 22.7425 10.08 22.2363 10.08 21.7086V21.619C10.0723 21.2897 9.96512 20.9703 9.77251 20.7024C9.5799 20.4344 9.31074 20.2303 9 20.1166C8.69838 19.9842 8.36381 19.9447 8.03941 20.0032C7.71502 20.0617 7.41568 20.2156 7.18 20.445L7.12 20.5047C6.93425 20.6897 6.71368 20.8365 6.47088 20.9366C6.22808 21.0367 5.96783 21.0883 5.705 21.0883C5.44217 21.0883 5.18192 21.0367 4.93912 20.9366C4.69632 20.8365 4.47575 20.6897 4.29 20.5047C4.10405 20.3198 3.95653 20.1004 3.85588 19.8588C3.75523 19.6172 3.70343 19.3583 3.70343 19.0968C3.70343 18.8353 3.75523 18.5763 3.85588 18.3347C3.95653 18.0932 4.10405 17.8737 4.29 17.6889L4.35 17.6292C4.58054 17.3947 4.73519 17.0969 4.794 16.7741C4.85282 16.4513 4.81312 16.1184 4.68 15.8183C4.55324 15.524 4.34276 15.2731 4.07447 15.0963C3.80618 14.9195 3.49179 14.8246 3.17 14.8234H3C2.46957 14.8234 1.96086 14.6137 1.58579 14.2405C1.21071 13.8673 1 13.3612 1 12.8334C1 12.3056 1.21071 11.7995 1.58579 11.4263C1.96086 11.0531 2.46957 10.8435 3 10.8435H3.09C3.42099 10.8358 3.742 10.7291 4.0113 10.5375C4.28059 10.3459 4.48572 10.0781 4.6 9.76888C4.73312 9.46878 4.77282 9.13588 4.714 8.81312C4.65519 8.49035 4.50054 8.19252 4.27 7.95803L4.21 7.89833C4.02405 7.71352 3.87653 7.49405 3.77588 7.25247C3.67523 7.01089 3.62343 6.75195 3.62343 6.49044C3.62343 6.22893 3.67523 5.96998 3.77588 5.72841C3.87653 5.48683 4.02405 5.26736 4.21 5.08255C4.39575 4.89753 4.61632 4.75075 4.85912 4.65061C5.10192 4.55047 5.36217 4.49892 5.625 4.49892C5.88783 4.49892 6.14808 4.55047 6.39088 4.65061C6.63368 4.75075 6.85425 4.89753 7.04 5.08255L7.1 5.14225C7.33568 5.37163 7.63502 5.5255 7.95941 5.58402C8.28381 5.64254 8.61838 5.60304 8.92 5.47059H9C9.29577 5.34446 9.54802 5.13504 9.72569 4.8681C9.90337 4.60116 9.99872 4.28835 10 3.96818V3.79903C10 3.27126 10.2107 2.76511 10.5858 2.39192C10.9609 2.01874 11.4696 1.80908 12 1.80908C12.5304 1.80908 13.0391 2.01874 13.4142 2.39192C13.7893 2.76511 14 3.27126 14 3.79903V3.88858C14.0013 4.20875 14.0966 4.52156 14.2743 4.7885C14.452 5.05544 14.7042 5.26487 15 5.39099C15.3016 5.52344 15.6362 5.56295 15.9606 5.50442C16.285 5.4459 16.5843 5.29203 16.82 5.06265L16.88 5.00295C17.0657 4.81793 17.2863 4.67116 17.5291 4.57101C17.7719 4.47087 18.0322 4.41933 18.295 4.41933C18.5578 4.41933 18.8181 4.47087 19.0609 4.57101C19.3037 4.67116 19.5243 4.81793 19.71 5.00295C19.896 5.18776 20.0435 5.40723 20.1441 5.64881C20.2448 5.89038 20.2966 6.14933 20.2966 6.41084C20.2966 6.67235 20.2448 6.9313 20.1441 7.17287C20.0435 7.41445 19.896 7.63392 19.71 7.81873L19.65 7.87843C19.4195 8.11292 19.2648 8.41076 19.206 8.73352C19.1472 9.05629 19.1869 9.38918 19.32 9.68928V9.76888C19.4468 10.0632 19.6572 10.3141 19.9255 10.4909C20.1938 10.6677 20.5082 10.7626 20.83 10.7639H21C21.5304 10.7639 22.0391 10.9735 22.4142 11.3467C22.7893 11.7199 23 12.226 23 12.7538C23 13.2816 22.7893 13.7877 22.4142 14.1609C22.0391 14.5341 21.5304 14.7438 21 14.7438H20.91C20.5882 14.745 20.2738 14.8399 20.0055 15.0167C19.7372 15.1935 19.5268 15.4444 19.4 15.7387V15.7387Z" stroke="#363636" stroke-width="2" stroke-linecap="round" stroke-linejoin="round"/>
</g>
<defs>
<clipPath id="clip0">
<rect width="24" height="23.8794" fill="white" transform="translate(0 0.814087)"/>
</clipPath>
</defs>
</svg>
