<svg width="24" height="24" viewBox="0 0 24 24" fill="none" xmlns="http://www.w3.org/2000/svg">
<g clip-path="url(#clip0)">
<path d="M12 14.9246C13.6569 14.9246 15 13.5882 15 11.9397C15 10.2912 13.6569 8.95477 12 8.95477C10.3431 8.95477 9 10.2912 9 11.9397C9 13.5882 10.3431 14.9246 12 14.9246Z" stroke="#674FEE" stroke-width="2" stroke-linecap="round" stroke-linejoin="round"/>
<path d="M19.4 14.9246C19.2669 15.2247 19.2272 15.5576 19.286 15.8804C19.3448 16.2032 19.4995 16.501 19.73 16.7355L19.79 16.7952C19.976 16.98 20.1235 17.1995 20.2241 17.4411C20.3248 17.6826 20.3766 17.9416 20.3766 18.2031C20.3766 18.4646 20.3248 18.7235 20.2241 18.9651C20.1235 19.2067 19.976 19.4262 19.79 19.611C19.6043 19.796 19.3837 19.9428 19.1409 20.0429C18.8981 20.1431 18.6378 20.1946 18.375 20.1946C18.1122 20.1946 17.8519 20.1431 17.6091 20.0429C17.3663 19.9428 17.1457 19.796 16.96 19.611L16.9 19.5513C16.6643 19.3219 16.365 19.168 16.0406 19.1095C15.7162 19.051 15.3816 19.0905 15.08 19.2229C14.7842 19.3491 14.532 19.5585 14.3543 19.8254C14.1766 20.0924 14.0813 20.4052 14.08 20.7253V20.8945C14.08 21.4223 13.8693 21.9284 13.4942 22.3016C13.1191 22.6748 12.6104 22.8844 12.08 22.8844C11.5496 22.8844 11.0409 22.6748 10.6658 22.3016C10.2907 21.9284 10.08 21.4223 10.08 20.8945V20.8049C10.0723 20.4756 9.96512 20.1562 9.77251 19.8883C9.5799 19.6203 9.31074 19.4162 9 19.3025C8.69838 19.1701 8.36381 19.1306 8.03941 19.1891C7.71502 19.2476 7.41568 19.4015 7.18 19.6309L7.12 19.6906C6.93425 19.8756 6.71368 20.0224 6.47088 20.1225C6.22808 20.2227 5.96783 20.2742 5.705 20.2742C5.44217 20.2742 5.18192 20.2227 4.93912 20.1225C4.69632 20.0224 4.47575 19.8756 4.29 19.6906C4.10405 19.5058 3.95653 19.2863 3.85588 19.0447C3.75523 18.8031 3.70343 18.5442 3.70343 18.2827C3.70343 18.0212 3.75523 17.7622 3.85588 17.5207C3.95653 17.2791 4.10405 17.0596 4.29 16.8748L4.35 16.8151C4.58054 16.5806 4.73519 16.2828 4.794 15.96C4.85282 15.6372 4.81312 15.3043 4.68 15.0042C4.55324 14.71 4.34276 14.459 4.07447 14.2822C3.80618 14.1054 3.49179 14.0105 3.17 14.0093H3C2.46957 14.0093 1.96086 13.7996 1.58579 13.4264C1.21071 13.0532 1 12.5471 1 12.0193C1 11.4915 1.21071 10.9854 1.58579 10.6122C1.96086 10.239 2.46957 10.0294 3 10.0294H3.09C3.42099 10.0217 3.742 9.91506 4.0113 9.72342C4.28059 9.53178 4.48572 9.26397 4.6 8.95479C4.73312 8.65469 4.77282 8.3218 4.714 7.99903C4.65519 7.67627 4.50054 7.37843 4.27 7.14394L4.21 7.08424C4.02405 6.89943 3.87653 6.67996 3.77588 6.43838C3.67523 6.19681 3.62343 5.93786 3.62343 5.67635C3.62343 5.41484 3.67523 5.1559 3.77588 4.91432C3.87653 4.67274 4.02405 4.45328 4.21 4.26846C4.39575 4.08344 4.61632 3.93667 4.85912 3.83652C5.10192 3.73638 5.36217 3.68484 5.625 3.68484C5.88783 3.68484 6.14808 3.73638 6.39088 3.83652C6.63368 3.93667 6.85425 4.08344 7.04 4.26846L7.1 4.32816C7.33568 4.55754 7.63502 4.71141 7.95941 4.76993C8.28381 4.82846 8.61838 4.78895 8.92 4.6565H9C9.29577 4.53038 9.54802 4.32095 9.72569 4.05401C9.90337 3.78707 9.99872 3.47426 10 3.15409V2.98494C10 2.45718 10.2107 1.95103 10.5858 1.57784C10.9609 1.20465 11.4696 0.994995 12 0.994995C12.5304 0.994995 13.0391 1.20465 13.4142 1.57784C13.7893 1.95103 14 2.45718 14 2.98494V3.07449C14.0013 3.39466 14.0966 3.70747 14.2743 3.97441C14.452 4.24136 14.7042 4.45078 15 4.5769C15.3016 4.70935 15.6362 4.74886 15.9606 4.69034C16.285 4.63181 16.5843 4.47794 16.82 4.24856L16.88 4.18886C17.0657 4.00385 17.2863 3.85707 17.5291 3.75693C17.7719 3.65678 18.0322 3.60524 18.295 3.60524C18.5578 3.60524 18.8181 3.65678 19.0609 3.75693C19.3037 3.85707 19.5243 4.00385 19.71 4.18886C19.896 4.37368 20.0435 4.59315 20.1441 4.83472C20.2448 5.0763 20.2966 5.33524 20.2966 5.59675C20.2966 5.85826 20.2448 6.11721 20.1441 6.35879C20.0435 6.60036 19.896 6.81983 19.71 7.00464L19.65 7.06434C19.4195 7.29884 19.2648 7.59667 19.206 7.91943C19.1472 8.2422 19.1869 8.5751 19.32 8.8752V8.95479C19.4468 9.24908 19.6572 9.50006 19.9255 9.67684C20.1938 9.85362 20.5082 9.94849 20.83 9.94977H21C21.5304 9.94977 22.0391 10.1594 22.4142 10.5326C22.7893 10.9058 23 11.412 23 11.9397C23 12.4675 22.7893 12.9736 22.4142 13.3468C22.0391 13.72 21.5304 13.9297 21 13.9297H20.91C20.5882 13.9309 20.2738 14.0258 20.0055 14.2026C19.7372 14.3794 19.5268 14.6304 19.4 14.9246V14.9246Z" stroke="#674FEE" stroke-width="2" stroke-linecap="round" stroke-linejoin="round"/>
</g>
<defs>
<clipPath id="clip0">
<rect width="24" height="23.8794" fill="white"/>
</clipPath>
</defs>
</svg>
