<?xml version="1.0" encoding="utf-8"?>
<!-- Generator: Adobe Illustrator 17.0.0, SVG Export Plug-In . SVG Version: 6.00 Build 0)  -->
<!DOCTYPE svg PUBLIC "-//W3C//DTD SVG 1.1//EN" "http://www.w3.org/Graphics/SVG/1.1/DTD/svg11.dtd">
<svg version="1.1" id="레이어_1" xmlns="http://www.w3.org/2000/svg" xmlns:xlink="http://www.w3.org/1999/xlink" x="0px"
	 y="0px" width="20px" height="20px" viewBox="0 0 20 20" enable-background="new 0 0 20 20" xml:space="preserve">
<path fill="#674FEE" d="M10,20c-5.52-0.006-9.994-4.48-10-10V9.8c0.11-5.495,4.635-9.872,10.131-9.799
	c5.496,0.073,9.903,4.568,9.867,10.064C19.962,15.562,15.497,19.999,10,20z M9.984,18H10c4.417-0.004,7.994-3.587,7.992-8.004
	C17.99,5.579,14.409,2,9.992,2c-4.417,0-7.998,3.579-8,7.996C1.99,14.413,5.567,17.996,9.984,18z M11,16H9v-2h2V16z M11,13H9
	c-0.032-1.302,0.646-2.519,1.77-3.178C11.43,9.316,12,8.88,12,8c0-1.105-0.895-2-2-2C8.895,6,8,6.895,8,8H6V7.91
	c0.016-1.429,0.793-2.741,2.039-3.442s2.77-0.683,4,0.045C13.269,5.242,14.016,6.571,14,8c-0.072,1.079-0.65,2.06-1.56,2.645
	C11.618,11.161,11.085,12.033,11,13z"/>
</svg>
