<svg width="16" height="15" viewBox="0 0 16 15" fill="none" xmlns="http://www.w3.org/2000/svg">
<path d="M14.3499 3.42957C13.6428 2.3555 12.555 1.76476 11.2497 1.76476C9.67237 1.76476 8.61177 2.59716 8.01349 3.51013C7.388 2.59716 6.3274 1.76476 4.7501 1.76476C3.47195 1.76476 2.35696 2.3555 1.64989 3.42957C0.752459 4.77216 0.64368 6.62494 1.35075 8.31661C2.68329 11.4046 5.75631 13.3379 7.90471 13.4185C7.9319 13.4185 7.9591 13.4185 7.98629 13.4185H8.01349C8.04068 13.4185 8.06788 13.4185 8.09507 13.4185C10.2435 13.3648 13.3437 11.4046 14.649 8.31661C15.3561 6.62494 15.2473 4.74531 14.3499 3.42957Z" fill="#674FEE"/>
<path opacity="0.4" d="M14.3499 3.42957C13.6428 2.3555 12.555 1.76476 11.2497 1.76476C9.67237 1.76476 8.61177 2.59716 8.01349 3.51013C7.388 2.59716 6.3274 1.76476 4.7501 1.76476C3.47195 1.76476 2.35696 2.3555 1.64989 3.42957C0.752459 4.77216 0.64368 6.62494 1.35075 8.31661C2.68329 11.4046 5.75631 13.3379 7.90471 13.4185C7.9319 13.4185 7.9591 13.4185 7.98629 13.4185H8.01349C8.04068 13.4185 8.06788 13.4185 8.09507 13.4185C10.2435 13.3648 13.3437 11.4046 14.649 8.31661C15.3561 6.62494 15.2473 4.74531 14.3499 3.42957Z" fill="url(#paint0_radial)"/>
<defs>
<radialGradient id="paint0_radial" cx="0" cy="0" r="1" gradientUnits="userSpaceOnUse" gradientTransform="translate(1.77414 0.424633) scale(12.9495 12.7861)">
<stop offset="0.0641439" stop-color="#CBC9FF"/>
<stop offset="0.1202" stop-color="#D0CEFF" stop-opacity="0.9401"/>
<stop offset="0.4624" stop-color="#EAE9FF" stop-opacity="0.5744"/>
<stop offset="0.7667" stop-color="#F9F9FF" stop-opacity="0.2493"/>
<stop offset="1" stop-color="white" stop-opacity="0"/>
</radialGradient>
</defs>
</svg>
