<svg width="18" height="18" viewBox="0 0 18 18" fill="none" xmlns="http://www.w3.org/2000/svg">
<circle cx="9" cy="9" r="9" fill="url(#paint0_linear)"/>
<path d="M13.3959 6.41547C12.9064 5.68775 12.1533 5.2875 11.2495 5.2875C10.1575 5.2875 9.42321 5.85148 9.00899 6.47005C8.57595 5.85148 7.84166 5.2875 6.74964 5.2875C5.86473 5.2875 5.09279 5.68775 4.60326 6.41547C3.98194 7.32512 3.90663 8.58044 4.39616 9.7266C5.31872 11.8188 7.44628 13.1287 8.93368 13.1833C8.95251 13.1833 8.97134 13.1833 8.99016 13.1833H9.00899C9.02782 13.1833 9.04665 13.1833 9.06547 13.1833C10.5529 13.1469 12.6993 11.8188 13.603 9.7266C14.0925 8.58044 14.0172 7.30693 13.3959 6.41547Z" fill="white"/>
<defs>
<linearGradient id="paint0_linear" x1="3.375" y1="-1.86497e-07" x2="11.8125" y2="18" gradientUnits="userSpaceOnUse">
<stop stop-color="#A696FF"/>
<stop offset="0.704323" stop-color="#8873FF"/>
<stop offset="1" stop-color="#7961FF"/>
</linearGradient>
</defs>
</svg>
