<svg xmlns="http://www.w3.org/2000/svg" width="31" height="16" fill="none" viewBox="0 0 31 16">
    <path stroke="#525C73" d="M23 .5H8C3.858.5.5 3.858.5 8c0 4.142 3.358 7.5 7.5 7.5h15c4.142 0 7.5-3.358 7.5-7.5 0-4.142-3.358-7.5-7.5-7.5z"/>
    <path fill="#525C73" d="M12.32 10.86c.22.91 1.36.9 1.57-.02l1.48-6.35c.13-.57-.92-.77-1.04-.18l-1.26 5.68-1.36-5.54c-.16-.65-1.18-.65-1.33-.01L9.03 9.99 7.81 4.35c-.13-.66-1.25-.43-1.12.18l1.48 6.34c.19.9 1.32.9 1.54-.02l1.31-5.33 1.3 5.34zm10.543-4.02h-1.09V4.06c0-.24-.21-.38-.5-.38-.31 0-.52.14-.52.38v8.03c0 .29.2.42.52.42.3 0 .5-.13.5-.42V7.77h1.09v4.53c0 .29.2.42.51.42s.52-.13.52-.42V3.89c0-.24-.22-.39-.52-.39-.3 0-.51.15-.51.39v2.95zm-3.49-1.55c.25 0 .37-.17.37-.45 0-.26-.12-.44-.37-.44h-2.21c-.93 0-1.09.11-1.09 1v3.74c0 .99.15 1.11 1.37 1.11.97 0 1.91-.08 2.59-.28.16-.04.25-.18.25-.39 0-.31-.16-.48-.36-.48-.02 0-.05 0-.11.01-.54.12-1.37.23-2.2.23h-.25c-.21 0-.24-.05-.24-.24V5.51c0-.2.02-.22.23-.22h2.02z"/>
</svg>
