<svg width="32" height="16" viewBox="0 0 32 16" fill="none" xmlns="http://www.w3.org/2000/svg">
<path d="M24 0.5H8C3.85786 0.5 0.5 3.85786 0.5 8C0.5 12.1421 3.85786 15.5 8 15.5H24C28.1421 15.5 31.5 12.1421 31.5 8C31.5 3.85786 28.1421 0.5 24 0.5Z" stroke="#8962F8"/>
<path d="M8.7 11.08C8.7 11.38 8.96 11.53 9.26 11.53C9.55 11.52 9.79 11.37 9.79 11.08V8.04005H13.2V11.08C13.2 11.38 13.47 11.53 13.76 11.53C14.05 11.52 14.3 11.37 14.3 11.08V4.41005C14.3 4.11005 14.04 3.96005 13.75 3.96005C13.45 3.96005 13.2 4.11005 13.2 4.41005V7.10005H9.79V4.41005C9.79 4.11005 9.54 3.96005 9.25 3.96005C8.96 3.96005 8.7 4.11005 8.7 4.41005V11.08ZM22.312 6.84005H21.222V4.06005C21.222 3.82005 21.012 3.68005 20.722 3.68005C20.412 3.68005 20.202 3.82005 20.202 4.06005V12.09C20.202 12.38 20.402 12.51 20.722 12.51C21.022 12.51 21.222 12.38 21.222 12.09V7.77005H22.312V12.3C22.312 12.59 22.512 12.72 22.822 12.72C23.132 12.72 23.342 12.59 23.342 12.3V3.89005C23.342 3.65005 23.122 3.50005 22.822 3.50005C22.522 3.50005 22.312 3.65005 22.312 3.89005V6.84005ZM18.822 5.29005C19.072 5.29005 19.192 5.12005 19.192 4.84005C19.192 4.58005 19.072 4.40005 18.822 4.40005H16.612C15.682 4.40005 15.522 4.51005 15.522 5.40005V9.14005C15.522 10.13 15.672 10.25 16.892 10.25C17.862 10.25 18.802 10.17 19.482 9.97005C19.642 9.93005 19.732 9.79005 19.732 9.58005C19.732 9.27005 19.572 9.10005 19.372 9.10005C19.352 9.10005 19.322 9.10005 19.262 9.11005C18.722 9.23005 17.892 9.34005 17.062 9.34005H16.812C16.602 9.34005 16.572 9.29005 16.572 9.10005V5.51005C16.572 5.31005 16.592 5.29005 16.802 5.29005H18.822Z" fill="#8962F8"/>
</svg>
