<svg xmlns="http://www.w3.org/2000/svg" width="31" height="16" fill="none" viewBox="0 0 31 16">
    <path stroke="#FD820B" d="M23 .5H8C3.858.5.5 3.858.5 8c0 4.142 3.358 7.5 7.5 7.5h15c4.142 0 7.5-3.358 7.5-7.5 0-4.142-3.358-7.5-7.5-7.5z"/>
    <path fill="#FD820B" d="M12.01 5.01l-3.82 5.14c-.46.62-.26 1.27.47 1.27h4.46c.29 0 .43-.21.43-.47s-.15-.48-.44-.48H9.25L13.1 5.3c.43-.58.36-1.25-.47-1.25h-4.2c-.29 0-.43.22-.43.47 0 .26.15.49.43.49h3.58zm9.265 1.83h-1.09V4.06c0-.24-.21-.38-.5-.38-.31 0-.52.14-.52.38v8.03c0 .29.2.42.52.42.3 0 .5-.13.5-.42V7.77h1.09v4.53c0 .29.2.42.51.42s.52-.13.52-.42V3.89c0-.24-.22-.39-.52-.39-.3 0-.51.15-.51.39v2.95zm-3.49-1.55c.25 0 .37-.17.37-.45 0-.26-.12-.44-.37-.44h-2.21c-.93 0-1.09.11-1.09 1v3.74c0 .99.15 1.11 1.37 1.11.97 0 1.91-.08 2.59-.28.16-.04.25-.18.25-.39 0-.31-.16-.48-.36-.48-.02 0-.05 0-.11.01-.54.12-1.37.23-2.2.23h-.25c-.21 0-.24-.05-.24-.24V5.51c0-.2.02-.22.23-.22h2.02z"/>
</svg>
