<svg xmlns="http://www.w3.org/2000/svg" width="31" height="16" fill="none" viewBox="0 0 31 16">
    <path stroke="#77EA7E" d="M23 .5H8C3.858.5.5 3.858.5 8c0 4.142 3.358 7.5 7.5 7.5h15c4.142 0 7.5-3.358 7.5-7.5 0-4.142-3.358-7.5-7.5-7.5z"/>
    <path fill="#77EA7E" d="M11.18 11.52c.13 0 .27-.01.4-.03l1.98 1.13c.67.4 1.21-.65.59-.96l-1.33-.62c.99-.52 1.62-1.64 1.62-3.34 0-2.6-1.47-3.77-3.26-3.77-1.82 0-3.26 1.24-3.26 3.77 0 2.61 1.43 3.82 3.26 3.82zm-.02-.97c-1.26 0-2.1-.86-2.1-2.85 0-1.91.88-2.78 2.12-2.78 1.21 0 2.11.86 2.11 2.78 0 1.98-.88 2.85-2.13 2.85zm11.043-3.71h-1.09V4.06c0-.24-.21-.38-.5-.38-.31 0-.52.14-.52.38v8.03c0 .29.2.42.52.42.3 0 .5-.13.5-.42V7.77h1.09v4.53c0 .29.2.42.51.42s.52-.13.52-.42V3.89c0-.24-.22-.39-.52-.39-.3 0-.51.15-.51.39v2.95zm-3.49-1.55c.25 0 .37-.17.37-.45 0-.26-.12-.44-.37-.44h-2.21c-.93 0-1.09.11-1.09 1v3.74c0 .99.15 1.11 1.37 1.11.97 0 1.91-.08 2.59-.28.16-.04.25-.18.25-.39 0-.31-.16-.48-.36-.48-.02 0-.05 0-.11.01-.54.12-1.37.23-2.2.23h-.25c-.21 0-.24-.05-.24-.24V5.51c0-.2.02-.22.23-.22h2.02z"/>
</svg>
