<svg xmlns="http://www.w3.org/2000/svg" width="31" height="16" fill="none" viewBox="0 0 31 16">
    <path stroke="#4662B2" d="M23 .5H8C3.858.5.5 3.858.5 8c0 4.142 3.358 7.5 7.5 7.5h15c4.142 0 7.5-3.358 7.5-7.5 0-4.142-3.358-7.5-7.5-7.5z"/>
    <path fill="#4662B2" d="M14.43 8.02c0-.52-.19-.69-.7-.69h-1.72c-.51 0-.51.95 0 .95h1.13c.2 0 .24.03.24.24v1.62c-.3.21-.88.39-1.4.39-1.42 0-2.42-.93-2.42-2.89 0-1.88 1.05-2.73 2.4-2.73.5 0 1.07.17 1.44.42.56.33.94-.51.49-.83-.44-.32-1.18-.56-2-.56-1.92 0-3.47 1.23-3.47 3.72 0 2.55 1.5 3.86 3.46 3.86.91 0 1.68-.25 2.15-.55.29-.19.4-.4.4-.8V8.02zm7.911-1.18h-1.09V4.06c0-.24-.21-.38-.5-.38-.31 0-.52.14-.52.38v8.03c0 .29.2.42.52.42.3 0 .5-.13.5-.42V7.77h1.09v4.53c0 .29.2.42.51.42s.52-.13.52-.42V3.89c0-.24-.22-.39-.52-.39-.3 0-.51.15-.51.39v2.95zm-3.49-1.55c.25 0 .37-.17.37-.45 0-.26-.12-.44-.37-.44h-2.21c-.93 0-1.09.11-1.09 1v3.74c0 .99.15 1.11 1.37 1.11.97 0 1.91-.08 2.59-.28.16-.04.25-.18.25-.39 0-.31-.16-.48-.36-.48-.02 0-.05 0-.11.01-.54.12-1.37.23-2.2.23h-.25c-.21 0-.24-.05-.24-.24V5.51c0-.2.02-.22.23-.22h2.02z"/>
</svg>
