<svg xmlns="http://www.w3.org/2000/svg" width="31" height="16" fill="none" viewBox="0 0 31 16">
    <path stroke="#D80E4F" d="M23 .5H8C3.858.5.5 3.858.5 8c0 4.142 3.358 7.5 7.5 7.5h15c4.142 0 7.5-3.358 7.5-7.5 0-4.142-3.358-7.5-7.5-7.5z"/>
    <path fill="#D80E4F" d="M10.82 10.57c-.6 0-1.2-.26-1.62-.56-.57-.4-1.15.39-.6.86.5.42 1.3.69 2.24.69 1.68 0 2.7-.92 2.7-2.25 0-1.18-.85-1.82-2-2.1l-.69-.17c-.78-.2-1.14-.55-1.14-1.13 0-.56.54-1 1.39-1 .65 0 1.18.2 1.55.43.57.34 1.06-.48.52-.85-.4-.28-1.12-.55-2.1-.55-1.57 0-2.51.95-2.51 2.03 0 1.15.86 1.77 1.85 2.02l.71.19c.88.23 1.27.58 1.27 1.23 0 .71-.53 1.16-1.57 1.16zm10.506-3.73h-1.09V4.06c0-.24-.21-.38-.5-.38-.31 0-.52.14-.52.38v8.03c0 .29.2.42.52.42.3 0 .5-.13.5-.42V7.77h1.09v4.53c0 .29.2.42.51.42s.52-.13.52-.42V3.89c0-.24-.22-.39-.52-.39-.3 0-.51.15-.51.39v2.95zm-3.49-1.55c.25 0 .37-.17.37-.45 0-.26-.12-.44-.37-.44h-2.21c-.93 0-1.09.11-1.09 1v3.74c0 .99.15 1.11 1.37 1.11.97 0 1.91-.08 2.59-.28.16-.04.25-.18.25-.39 0-.31-.16-.48-.36-.48-.02 0-.05 0-.11.01-.54.12-1.37.23-2.2.23h-.25c-.21 0-.24-.05-.24-.24V5.51c0-.2.02-.22.23-.22h2.02z"/>
</svg>
