<svg xmlns="http://www.w3.org/2000/svg" width="31" height="16" fill="none" viewBox="0 0 31 16">
    <path stroke="#91CEC2" d="M23 .5H8C3.858.5.5 3.858.5 8c0 4.142 3.358 7.5 7.5 7.5h15c4.142 0 7.5-3.358 7.5-7.5 0-4.142-3.358-7.5-7.5-7.5z"/>
    <path fill="#91CEC2" d="M12.66 10.75c.26.51.49.76.98.76.36 0 .66-.28.66-.62V4.41c0-.3-.26-.45-.55-.45-.3 0-.55.15-.55.45v5.36l-2.88-5.09c-.22-.41-.45-.7-.97-.7-.39 0-.65.28-.65.62v6.48c0 .29.24.45.53.45.28 0 .52-.16.52-.45V5.64l2.91 5.11zm9.652-3.91h-1.09V4.06c0-.24-.21-.38-.5-.38-.31 0-.52.14-.52.38v8.03c0 .29.2.42.52.42.3 0 .5-.13.5-.42V7.77h1.09v4.53c0 .29.2.42.51.42s.52-.13.52-.42V3.89c0-.24-.22-.39-.52-.39-.3 0-.51.15-.51.39v2.95zm-3.49-1.55c.25 0 .37-.17.37-.45 0-.26-.12-.44-.37-.44h-2.21c-.93 0-1.09.11-1.09 1v3.74c0 .99.15 1.11 1.37 1.11.97 0 1.91-.08 2.59-.28.16-.04.25-.18.25-.39 0-.31-.16-.48-.36-.48-.02 0-.05 0-.11.01-.54.12-1.37.23-2.2.23h-.25c-.21 0-.24-.05-.24-.24V5.51c0-.2.02-.22.23-.22h2.02z"/>
</svg>
