<svg width="26" height="26" viewBox="0 0 26 26" fill="none" xmlns="http://www.w3.org/2000/svg">
<path d="M22.6091 18.6875L19.6732 13.6175C20.274 12.5141 20.587 11.2771 20.5832 10.0208C20.5832 8.00961 19.7843 6.08076 18.3621 4.65861C16.94 3.23646 15.0111 2.4375 12.9999 2.4375C10.9887 2.4375 9.05984 3.23646 7.63769 4.65861C6.21554 6.08076 5.41658 8.00961 5.41658 10.0208C5.41285 11.2771 5.72583 12.5141 6.32658 13.6175L3.39075 18.6875C3.29548 18.8525 3.24542 19.0397 3.24561 19.2302C3.24579 19.4208 3.29623 19.6079 3.39182 19.7727C3.48741 19.9375 3.62478 20.0742 3.79007 20.169C3.95536 20.2638 4.14272 20.3133 4.33325 20.3125H7.44242L9.02408 22.9775C9.0774 23.0658 9.14307 23.1461 9.21908 23.2158C9.41991 23.4094 9.68766 23.5181 9.96658 23.5192H10.1182C10.2818 23.4968 10.4381 23.4373 10.5751 23.3453C10.7122 23.2533 10.8264 23.1312 10.9091 22.9883L12.9999 19.3917L15.0907 23.0208C15.1746 23.1617 15.2894 23.2817 15.4264 23.3718C15.5634 23.4618 15.719 23.5196 15.8816 23.5408H16.0332C16.3159 23.5425 16.5881 23.4337 16.7916 23.2375C16.8644 23.1717 16.9266 23.095 16.9757 23.01L18.5574 20.345H21.6666C21.8575 20.3458 22.0452 20.2961 22.2107 20.2009C22.3762 20.1058 22.5136 19.9687 22.6091 19.8033C22.7103 19.6348 22.7638 19.442 22.7638 19.2454C22.7638 19.0489 22.7103 18.856 22.6091 18.6875ZM9.95575 20.345L8.99158 18.7308C8.89664 18.5707 8.76203 18.4377 8.60074 18.3447C8.43945 18.2517 8.25691 18.2019 8.07075 18.2H6.19658L7.74575 15.5133C8.81253 16.5413 10.1571 17.2343 11.6132 17.5067L9.95575 20.345ZM12.9999 15.4375C11.9286 15.4375 10.8813 15.1198 9.99058 14.5246C9.09981 13.9294 8.40554 13.0835 7.99557 12.0937C7.58559 11.1039 7.47833 10.0148 7.68733 8.96409C7.89633 7.91336 8.41222 6.94821 9.16975 6.19067C9.92729 5.43314 10.8924 4.91725 11.9432 4.70825C12.9939 4.49924 14.083 4.60651 15.0728 5.01649C16.0626 5.42646 16.9085 6.12073 17.5037 7.01149C18.0989 7.90226 18.4166 8.94952 18.4166 10.0208C18.4166 11.4574 17.8459 12.8352 16.8301 13.851C15.8143 14.8668 14.4365 15.4375 12.9999 15.4375ZM17.9291 18.2C17.7429 18.2019 17.5604 18.2517 17.3991 18.3447C17.2378 18.4377 17.1032 18.5707 17.0082 18.7308L16.0441 20.345L14.3974 17.4742C15.8485 17.1962 17.188 16.5038 18.2541 15.4808L19.8032 18.1675L17.9291 18.2Z" fill="#727272"/>
</svg>
