<svg xmlns="http://www.w3.org/2000/svg" width="31" height="16" fill="none" viewBox="0 0 31 16">
    <path stroke="#7A6E49" d="M23 .5H8C3.858.5.5 3.858.5 8c0 4.142 3.358 7.5 7.5 7.5h15c4.142 0 7.5-3.358 7.5-7.5 0-4.142-3.358-7.5-7.5-7.5z"/>
    <path fill="#7A6E49" d="M9.946 5.23c0-.17.05-.26.28-.26h1.06c.97 0 1.47.31 1.47 1.05 0 .81-.59 1.15-1.42 1.15h-1.39V5.23zm.28 5.27c-.22 0-.28-.07-.28-.31V8.03h1.55c.97 0 1.6.37 1.6 1.21 0 .8-.54 1.26-1.54 1.26h-1.33zm-1.36-.03c0 .69.27.95.94.95h1.95c1.7 0 2.47-.86 2.47-2.11 0-1.09-.74-1.63-1.59-1.8.74-.19 1.19-.87 1.19-1.65 0-1.2-.75-1.81-2.37-1.81h-1.64c-.61 0-.95.23-.95.87v5.55zm13.24-3.63h-1.09V4.06c0-.24-.21-.38-.5-.38-.31 0-.52.14-.52.38v8.03c0 .29.2.42.52.42.3 0 .5-.13.5-.42V7.77h1.09v4.53c0 .29.2.42.51.42s.52-.13.52-.42V3.89c0-.24-.22-.39-.52-.39-.3 0-.51.15-.51.39v2.95zm-3.49-1.55c.25 0 .37-.17.37-.45 0-.26-.12-.44-.37-.44h-2.21c-.93 0-1.09.11-1.09 1v3.74c0 .99.15 1.11 1.37 1.11.97 0 1.91-.08 2.59-.28.16-.04.25-.18.25-.39 0-.31-.16-.48-.36-.48-.02 0-.05 0-.11.01-.54.12-1.37.23-2.2.23h-.25c-.21 0-.24-.05-.24-.24V5.51c0-.2.02-.22.23-.22h2.02z"/>
</svg>
