<svg width="24" height="24" viewBox="0 0 24 24" fill="none" xmlns="http://www.w3.org/2000/svg">
<path fill-rule="evenodd" clip-rule="evenodd" d="M14.4402 4.90962C14.4404 4.90937 14.4404 4.90897 14.4402 4.90872C14.44 4.90847 14.44 4.90807 14.4402 4.90782C15.4943 3.85446 17.2027 3.85469 18.2565 4.90849C19.3102 5.96216 19.3105 7.67027 18.2576 8.72439C18.2574 8.72464 18.2574 8.72504 18.2576 8.72529C18.2578 8.72554 18.2578 8.72594 18.2576 8.72619L18.0195 8.9643C17.8877 9.09605 17.6741 9.09605 17.5424 8.9643L14.2023 5.62423C14.0707 5.49259 14.0707 5.27916 14.2023 5.14752L14.4402 4.90962Z" fill="#727272"/>
<path d="M10.8646 20.2839H20.1656" stroke="#727272" stroke-width="1.5" stroke-miterlimit="10" stroke-linecap="round" stroke-linejoin="round"/>
<path d="M12.451 7.1082L3.71842 16.5176C3.59361 16.6726 3.5 16.8585 3.5 17.0754V19.8023C3.5 20.2671 3.87443 20.6389 4.34246 20.6389H6.96346C7.21308 20.6389 7.43149 20.5459 7.58751 20.36L16.2889 10.8266C16.6009 10.5168 16.5697 10.021 16.2889 9.68013L13.6991 7.1082C13.3559 6.76735 12.7942 6.76735 12.451 7.1082Z" fill="#727272"/>
</svg>
