<svg width="101" height="21" viewBox="0 0 101 21" fill="none" xmlns="http://www.w3.org/2000/svg">
<path d="M2.54963 19.8562C1.75324 19.8562 1.12451 19.2168 1.12451 18.4069V7.70778C1.12451 6.72738 1.9209 5.91748 2.88495 5.91748H6.19626C8.75309 5.91748 10.8489 8.04879 10.8489 10.649V11.5015C10.8489 14.1017 8.75309 16.233 6.19626 16.233H4.01667V18.4069C4.01667 19.2168 3.34602 19.8562 2.54963 19.8562ZM4.01667 13.2918H6.23817C7.20223 13.2918 7.99862 12.4819 7.99862 11.5015V10.649C7.99862 9.66858 7.20223 8.85868 6.23817 8.85868H4.01667V13.2918Z" fill="#674FEE"/>
<path d="M17.8487 16.8298C14.9984 16.8298 12.6512 14.4001 12.6512 11.3736C12.6512 8.34718 14.9984 5.91748 17.8487 5.91748C20.6989 5.91748 23.0462 8.34718 23.0462 11.3736C23.0462 14.3575 20.7408 16.8298 17.8487 16.8298ZM17.8487 8.81607C16.5493 8.81607 15.5433 9.96697 15.5433 11.3736C15.5433 12.7803 16.5912 13.9312 17.8487 13.9312C19.1061 13.9312 20.154 12.7803 20.154 11.3736C20.154 9.96697 19.1481 8.81607 17.8487 8.81607Z" fill="#674FEE"/>
<path d="M33.9021 14.656L31.1776 10.4787L33.5668 8.60313C34.1955 8.09161 34.3213 7.19646 33.8183 6.55707C33.3153 5.91768 32.4351 5.7898 31.8064 6.30132L27.7825 9.49827V2.59285C27.7825 1.78295 27.1538 1.14355 26.3574 1.14355C25.561 1.14355 24.9323 1.78295 24.9323 2.59285V15.4659C24.9323 16.2758 25.561 16.9152 26.3574 16.9152C27.1538 16.9152 27.7825 16.2758 27.7825 15.4659V13.2067L28.9561 12.269L31.5549 16.2758C31.8483 16.7021 32.2674 16.9152 32.7704 16.9152C33.0638 16.9152 33.3153 16.83 33.5668 16.6595C34.1955 16.2332 34.3632 15.2954 33.9021 14.656Z" fill="#674FEE"/>
<path d="M41.1116 16.8727C38.2614 16.8727 35.9561 14.443 35.9561 11.4166C35.9561 8.43276 38.2614 5.96045 41.1116 5.96045C43.9619 5.96045 46.2672 8.39013 46.2672 11.4166C46.2672 12.1839 45.6804 12.7806 44.9259 12.7806H38.974C39.3931 13.5905 40.1895 14.1447 41.1116 14.1447C42.2434 14.1447 43.0397 13.9742 43.5427 13.5905C44.1295 13.1216 44.9678 13.2495 45.4289 13.8889C45.89 14.4857 45.7642 15.3382 45.1355 15.8071C43.878 16.7449 42.2434 16.8727 41.1116 16.8727ZM38.974 10.0526H43.2493C42.8302 9.24266 42.0338 8.68852 41.1116 8.68852C40.2314 8.68852 39.3931 9.24266 38.974 10.0526Z" fill="#674FEE"/>
<path d="M56.4106 14.9544C56.2011 14.1871 55.4047 13.7182 54.6502 13.9313C53.267 14.315 52.764 14.0592 52.6802 13.9739C52.4287 13.7608 52.3868 13.2067 52.3868 13.1214V9.02933H54.5245C55.3208 9.02933 55.9496 8.38993 55.9496 7.58004C55.9496 6.77014 55.3208 6.13074 54.5245 6.13074H52.3868V4.46833C52.3868 3.65843 51.758 3.01904 50.9616 3.01904C50.1653 3.01904 49.5365 3.65843 49.5365 4.46833V6.13074H48.6144C47.818 6.13074 47.1893 6.77014 47.1893 7.58004C47.1893 8.38993 47.818 9.02933 48.6144 9.02933H49.5365V12.9509C49.4946 13.3772 49.4946 15.1249 50.8359 16.2331C51.5065 16.7873 52.3449 17.0857 53.3927 17.0857C54.0215 17.0857 54.6921 17.0004 55.4466 16.7873C56.1592 16.5315 56.6202 15.7216 56.4106 14.9544Z" fill="#674FEE"/>
<path d="M68.2307 16.9154C65.7577 16.9154 63.7458 14.8693 63.7458 12.3544V7.40974C63.7458 6.59984 64.3745 5.96045 65.1709 5.96045C65.9673 5.96045 66.596 6.59984 66.596 7.40974V12.3544C66.596 13.2495 67.3086 14.0168 68.2307 14.0168C69.111 14.0168 69.8654 13.2921 69.8654 12.3544V7.40974C69.8654 6.59984 70.4942 5.96045 71.2906 5.96045C72.0869 5.96045 72.7157 6.59984 72.7157 7.40974V12.3544C72.7157 14.8693 70.7037 16.9154 68.2307 16.9154Z" fill="#674FEE"/>
<path d="M82.1047 16.9154C81.3084 16.9154 80.6796 16.276 80.6796 15.4661V10.5215C80.6796 9.6263 79.9671 8.85902 79.0449 8.85902C78.1647 8.85902 77.4102 9.58368 77.4102 10.5215V15.4661C77.4102 16.276 76.7815 16.9154 75.9851 16.9154C75.1887 16.9154 74.56 16.276 74.56 15.4661V10.5215C74.56 8.00651 76.5719 5.96045 79.0449 5.96045C81.5179 5.96045 83.5299 8.00651 83.5299 10.5215V15.4661C83.5299 16.276 82.9011 16.9154 82.1047 16.9154Z" fill="#674FEE"/>
<path d="M86.7994 16.9154C86.003 16.9154 85.3743 16.276 85.3743 15.4661V7.40974C85.3743 6.59984 86.003 5.96045 86.7994 5.96045C87.5958 5.96045 88.2245 6.59984 88.2245 7.40974V15.4661C88.2245 16.2333 87.5958 16.9154 86.7994 16.9154Z" fill="#674FEE"/>
<path d="M94.9309 16.8298C94.3441 16.8298 93.8411 16.4888 93.6316 15.9347L90.1945 7.92097C89.8592 7.19632 90.1945 6.30117 90.949 6.00279C91.6615 5.66178 92.5418 6.00279 92.8352 6.77006L94.9728 11.7147L97.1105 6.77006C97.4459 6.04541 98.2842 5.70441 98.9967 6.00279C99.7093 6.3438 100.045 7.19632 99.7512 7.92097L96.3141 15.892C96.0207 16.4888 95.4758 16.8298 94.9309 16.8298Z" fill="#674FEE"/>
</svg>
