<svg width="63" height="13" viewBox="0 0 63 13" fill="none" xmlns="http://www.w3.org/2000/svg">
<path d="M1.59035 12.2923C1.09359 12.2923 0.701416 11.8965 0.701416 11.3951V4.77186C0.701416 4.16494 1.19817 3.66357 1.79951 3.66357H3.86498C5.45984 3.66357 6.76709 4.98296 6.76709 6.5926V7.12035C6.76709 8.72999 5.45984 10.0494 3.86498 10.0494H2.50543V11.3951C2.50543 11.8965 2.08711 12.2923 1.59035 12.2923ZM2.50543 8.22863H3.89113C4.49247 8.22863 4.98922 7.72727 4.98922 7.12035V6.5926C4.98922 5.98568 4.49247 5.48432 3.89113 5.48432H2.50543V8.22863Z" fill="#393939"/>
<path d="M11.1334 10.4188C9.35549 10.4188 7.89136 8.91471 7.89136 7.04119C7.89136 5.16767 9.35549 3.66357 11.1334 3.66357C12.9112 3.66357 14.3754 5.16767 14.3754 7.04119C14.3754 8.88832 12.9374 10.4188 11.1334 10.4188ZM11.1334 5.45794C10.3229 5.45794 9.69537 6.1704 9.69537 7.04119C9.69537 7.91198 10.349 8.62445 11.1334 8.62445C11.9177 8.62445 12.5713 7.91198 12.5713 7.04119C12.5713 6.1704 11.9439 5.45794 11.1334 5.45794Z" fill="#393939"/>
<path d="M21.1468 9.07288L19.4474 6.48689L20.9377 5.32584C21.3298 5.00919 21.4083 4.45505 21.0945 4.05923C20.7808 3.66342 20.2317 3.58426 19.8396 3.90091L17.3296 5.87997V1.60519C17.3296 1.10382 16.9375 0.708008 16.4407 0.708008C15.9439 0.708008 15.5518 1.10382 15.5518 1.60519V9.57424C15.5518 10.0756 15.9439 10.4714 16.4407 10.4714C16.9375 10.4714 17.3296 10.0756 17.3296 9.57424V8.1757L18.0617 7.59517L19.6827 10.0756C19.8657 10.3395 20.1272 10.4714 20.4409 10.4714C20.6239 10.4714 20.7808 10.4186 20.9377 10.3131C21.3298 10.0492 21.4344 9.46869 21.1468 9.07288Z" fill="#393939"/>
<path d="M25.6438 10.4452C23.866 10.4452 22.428 8.94107 22.428 7.06755C22.428 5.22042 23.866 3.68994 25.6438 3.68994C27.4217 3.68994 28.8597 5.19403 28.8597 7.06755C28.8597 7.54253 28.4937 7.91196 28.0231 7.91196H24.3104C24.5719 8.41332 25.0686 8.75636 25.6438 8.75636C26.3498 8.75636 26.8465 8.65081 27.1603 8.41332C27.5263 8.12306 28.0492 8.20222 28.3368 8.59804C28.6244 8.96746 28.546 9.49521 28.1538 9.78548C27.3694 10.366 26.3498 10.4452 25.6438 10.4452ZM24.3104 6.22315H26.9772C26.7158 5.72179 26.219 5.37875 25.6438 5.37875C25.0948 5.37875 24.5719 5.72179 24.3104 6.22315Z" fill="#393939"/>
<path d="M35.1869 9.25767C35.0562 8.78269 34.5594 8.49243 34.0888 8.62437C33.226 8.86186 32.9122 8.70352 32.86 8.65075C32.7031 8.51881 32.6769 8.17577 32.6769 8.123V5.58979H34.0103C34.5071 5.58979 34.8993 5.19398 34.8993 4.69261C34.8993 4.19125 34.5071 3.79543 34.0103 3.79543H32.6769V2.76632C32.6769 2.26495 32.2848 1.86914 31.788 1.86914C31.2912 1.86914 30.8991 2.26495 30.8991 2.76632V3.79543H30.3239C29.8271 3.79543 29.4349 4.19125 29.4349 4.69261C29.4349 5.19398 29.8271 5.58979 30.3239 5.58979H30.8991V8.01745C30.8729 8.28132 30.8729 9.36322 31.7096 10.0493C32.1279 10.3923 32.6508 10.577 33.3044 10.577C33.6966 10.577 34.1149 10.5243 34.5855 10.3923C35.03 10.234 35.3176 9.73264 35.1869 9.25767Z" fill="#393939"/>
<path d="M42.5599 10.4716C41.0173 10.4716 39.7623 9.20495 39.7623 7.64808V4.58712C39.7623 4.08575 40.1545 3.68994 40.6513 3.68994C41.148 3.68994 41.5402 4.08575 41.5402 4.58712V7.64808C41.5402 8.20222 41.9847 8.6772 42.5599 8.6772C43.1089 8.6772 43.5795 8.22861 43.5795 7.64808V4.58712C43.5795 4.08575 43.9717 3.68994 44.4685 3.68994C44.9652 3.68994 45.3574 4.08575 45.3574 4.58712V7.64808C45.3574 9.20495 44.1024 10.4716 42.5599 10.4716Z" fill="#393939"/>
<path d="M51.2138 10.4716C50.7171 10.4716 50.3249 10.0757 50.3249 9.57437V6.51342C50.3249 5.95928 49.8804 5.4843 49.3052 5.4843C48.7562 5.4843 48.2856 5.93289 48.2856 6.51342V9.57437C48.2856 10.0757 47.8934 10.4716 47.3966 10.4716C46.8999 10.4716 46.5077 10.0757 46.5077 9.57437V6.51342C46.5077 4.95655 47.7627 3.68994 49.3052 3.68994C50.8478 3.68994 52.1028 4.95655 52.1028 6.51342V9.57437C52.1028 10.0757 51.7106 10.4716 51.2138 10.4716Z" fill="#393939"/>
<path d="M54.1422 10.4716C53.6455 10.4716 53.2533 10.0757 53.2533 9.57437V4.58712C53.2533 4.08575 53.6455 3.68994 54.1422 3.68994C54.639 3.68994 55.0312 4.08575 55.0312 4.58712V9.57437C55.0312 10.0494 54.639 10.4716 54.1422 10.4716Z" fill="#393939"/>
<path d="M59.2144 10.4186C58.8484 10.4186 58.5347 10.2075 58.4039 9.86441L56.26 4.90355C56.0509 4.45496 56.26 3.90082 56.7306 3.71611C57.1751 3.50501 57.7242 3.7161 57.9072 4.19108L59.2406 7.25204L60.574 4.19108C60.7832 3.74249 61.3061 3.53139 61.7505 3.71611C62.195 3.92721 62.4042 4.45496 62.2211 4.90355L60.0772 9.83802C59.8942 10.2074 59.5543 10.4186 59.2144 10.4186Z" fill="#393939"/>
</svg>
