<?xml version="1.0" encoding="utf-8"?>
<!-- Generator: Adobe Illustrator 17.0.0, SVG Export Plug-In . SVG Version: 6.00 Build 0)  -->
<!DOCTYPE svg PUBLIC "-//W3C//DTD SVG 1.1//EN" "http://www.w3.org/Graphics/SVG/1.1/DTD/svg11.dtd">
<svg version="1.1" id="레이어_1" xmlns="http://www.w3.org/2000/svg" xmlns:xlink="http://www.w3.org/1999/xlink" x="0px"
	 y="0px" width="20px" height="20px" viewBox="0 0 20 20" enable-background="new 0 0 20 20" xml:space="preserve">
<path fill="#727272" d="M10,20C4.477,20,0,15.523,0,10C0,4.477,4.477,0,10,0c5.523,0,10,4.477,10,10
	C19.994,15.52,15.52,19.994,10,20z M2,10.172c0.047,4.401,3.641,7.938,8.042,7.914c4.402-0.024,7.957-3.599,7.957-8
	c0-4.401-3.556-7.976-7.957-8C5.641,2.062,2.047,5.599,2,10V10.172z M12,15H9v-4H8V9h3v4h1V15z M11,7H9V5h2V7z"/>
</svg>
