<svg width="24" height="24" viewBox="0 0 24 24" fill="none" xmlns="http://www.w3.org/2000/svg">
<path d="M21.6 12.266C21.9 11.866 22.1 11.466 22.1 10.966C22.1 9.86599 21.2 8.86599 20 8.86599H16.1C16.2 8.46599 16.4 7.86599 16.5 7.16599C16.9 5.66599 16.7 4.26599 16.2 3.36599C15.8 2.66599 15.2 2.26599 14.4 2.06599C12.9 1.66599 12.4 3.16599 12.1 4.36599C11.9 4.96599 11.6 5.66599 11.3 6.36599C10.8 7.16599 10.3 7.76599 9.80005 8.06599V20.166C10 20.266 10.2 20.366 10.4 20.366C11.6 20.866 13 20.966 15.2 20.966H18.6C19.8 20.966 20.7 20.066 20.7 18.866C20.7 18.666 20.7 18.466 20.6 18.266C21.5 18.066 22.2 17.266 22.2 16.266C22.2 15.766 22 15.266 21.7 14.966C22 14.566 22.2 14.166 22.2 13.666C22.1 13.066 21.9 12.566 21.6 12.266Z" fill="#674FEE"/>
<path d="M8.4 8.76599C8.1 8.06599 7.4 7.56599 6.6 7.56599H2.8C2.3 7.46599 2 7.86599 2 8.26599V20.566C2 20.966 2.3 21.366 2.8 21.366H6.7C7.5 21.366 8.2 20.866 8.5 20.066V8.76599H8.4Z" fill="#674FEE"/>
</svg>
