<svg width="24" height="24" viewBox="0 0 24 24" fill="none" xmlns="http://www.w3.org/2000/svg">
<g clip-path="url(#clip0)">
<path d="M12.0825 16.3522C14.8875 13.6896 15.2682 9.49731 12.9327 6.98853C10.5973 4.47974 6.43001 4.60444 3.62494 7.26705C0.819861 9.92966 0.439179 14.1219 2.77466 16.6307C5.11014 19.1395 9.27738 19.0148 12.0825 16.3522Z" stroke="#727272" stroke-width="2.4"/>
<path d="M8.56421 19.0838C10.6555 22.1005 14.7385 20.8938 17.3277 17.3743" stroke="#727272" stroke-width="2.4" stroke-linecap="round"/>
<path d="M22.2076 20.8939C23.1976 20.8939 24.0001 20.0835 24.0001 19.0839C24.0001 18.0842 23.1976 17.2738 22.2076 17.2738C21.2176 17.2738 20.415 18.0842 20.415 19.0839C20.415 20.0835 21.2176 20.8939 22.2076 20.8939Z" fill="#727272"/>
</g>
<defs>
<clipPath id="clip0">
<rect width="24" height="18" fill="white" transform="translate(0 4)"/>
</clipPath>
</defs>
</svg>
