<svg width="24" height="24" viewBox="0 0 24 24" fill="none" xmlns="http://www.w3.org/2000/svg">
<path d="M6.70005 20.6H2.80005V8.30005H6.70005C7.30005 8.30005 7.80005 8.80005 7.80005 9.40005V19.4C7.80005 20.1 7.30005 20.6 6.70005 20.6Z" stroke="#727272" stroke-width="1.5" stroke-miterlimit="10" stroke-linejoin="round"/>
<path d="M13.6001 9.59998H20.0001C20.7001 9.59998 21.3001 10.2 21.3001 10.9C21.3001 11.6 20.7001 12.2 20.0001 12.2H18.3001" stroke="#727272" stroke-width="1.5" stroke-miterlimit="10" stroke-linecap="round"/>
<path d="M18.3999 12.3H19.9999C20.6999 12.3 21.2999 12.9 21.2999 13.6C21.2999 14.3 20.6999 14.9 19.9999 14.9H18.3999" stroke="#727272" stroke-width="1.5" stroke-miterlimit="10" stroke-linecap="round"/>
<path d="M18.5 14.9H20C20.7 14.9 21.3 15.5 21.3 16.2C21.3 16.9 20.7 17.5 20 17.5H18.5" stroke="#727272" stroke-width="1.5" stroke-miterlimit="10" stroke-linecap="round"/>
<path d="M18.5 17.6C19.2 17.6 19.8 18.2 19.8 18.9C19.8 19.6 19.2 20.2 18.5 20.2C18.5 20.2 16.8 20.2 15.1 20.2C13.1 20.2 11.6 20.1 10.6 19.7C9.50005 19.3 7.80005 18.6 7.80005 18.6" stroke="#727272" stroke-width="1.5" stroke-miterlimit="10" stroke-linecap="round"/>
<path d="M7.80005 9.69998C7.80005 9.69998 10.3 9.59998 11.9 6.79998C13.1 4.79998 12.9 2.49998 14.3 2.79998C16 3.19998 16.3 5.19998 15.9 6.99998C15.4 8.99998 15.1 9.59998 15.1 9.59998" stroke="#727272" stroke-width="1.5" stroke-miterlimit="10" stroke-linecap="round"/>
</svg>
