<?xml version="1.0" encoding="utf-8"?>
<!-- Generator: Adobe Illustrator 17.0.0, SVG Export Plug-In . SVG Version: 6.00 Build 0)  -->
<!DOCTYPE svg PUBLIC "-//W3C//DTD SVG 1.1//EN" "http://www.w3.org/Graphics/SVG/1.1/DTD/svg11.dtd">
<svg version="1.1" id="레이어_1" xmlns="http://www.w3.org/2000/svg" xmlns:xlink="http://www.w3.org/1999/xlink" x="0px"
	 y="0px" width="24px" height="24px" viewBox="0 0 24 24" enable-background="new 0 0 24 24" xml:space="preserve">
<g>
	<defs>
		<rect id="SVGID_1_" y="4" width="24" height="18"/>
	</defs>
	<clipPath id="SVGID_2_">
		<use xlink:href="#SVGID_1_"  overflow="visible"/>
	</clipPath>
	<g clip-path="url(#SVGID_2_)">
		<path fill="none" stroke="#674FEE" stroke-width="2.4" d="M12.083,16.352c2.805-2.663,3.186-6.855,0.85-9.364
			C10.597,4.48,6.43,4.604,3.625,7.267c-2.805,2.663-3.186,6.855-0.85,9.364C5.11,19.139,9.277,19.015,12.083,16.352z"/>
		<path fill="none" stroke="#674FEE" stroke-width="2.4" stroke-linecap="round" d="M8.564,19.084
			c2.091,3.017,6.174,1.81,8.763-1.709"/>
		<path fill="#674FEE" d="M22.208,20.894c0.99,0,1.792-0.81,1.792-1.81c0-1-0.802-1.81-1.792-1.81s-1.793,0.81-1.793,1.81
			C20.415,20.083,21.218,20.894,22.208,20.894z"/>
	</g>
</g>
</svg>
