<svg width="29" height="29" viewBox="0 0 29 29" fill="none" xmlns="http://www.w3.org/2000/svg">
<g filter="url(#filter0_d)">
<path fill-rule="evenodd" clip-rule="evenodd" d="M3.625 5.625C3.625 4.52043 4.52043 3.625 5.625 3.625H16.4606C17.5652 3.625 18.4606 4.52043 18.4606 5.625V16.4606C18.4606 17.5652 17.5652 18.4606 16.4607 18.4606H5.625C4.52043 18.4606 3.625 17.5652 3.625 16.4607V5.625ZM24.1664 20.7431C24.1664 20.7431 24.1664 20.7432 24.1665 20.7432C24.1665 20.7432 24.1665 20.7432 24.1665 20.7432V22.455C24.1665 23.4004 23.4001 24.1668 22.4547 24.1668H11.0427C10.0973 24.1668 9.33088 23.4004 9.33088 22.455C9.33088 21.5096 10.0973 20.7432 11.0427 20.7432H18.7428C19.8474 20.7432 20.7428 19.8477 20.7428 18.7432V11.043C20.7428 10.0976 21.5092 9.33117 22.4546 9.33117C23.4 9.33117 24.1664 10.0976 24.1664 11.043V20.7431Z" fill="white"/>
</g>
<defs>
<filter id="filter0_d" x="0.625" y="0.625" width="26.5415" height="26.5418" filterUnits="userSpaceOnUse" color-interpolation-filters="sRGB">
<feFlood flood-opacity="0" result="BackgroundImageFix"/>
<feColorMatrix in="SourceAlpha" type="matrix" values="0 0 0 0 0 0 0 0 0 0 0 0 0 0 0 0 0 0 127 0"/>
<feOffset/>
<feGaussianBlur stdDeviation="1.5"/>
<feColorMatrix type="matrix" values="0 0 0 0 0 0 0 0 0 0 0 0 0 0 0 0 0 0 0.25 0"/>
<feBlend mode="normal" in2="BackgroundImageFix" result="effect1_dropShadow"/>
<feBlend mode="normal" in="SourceGraphic" in2="effect1_dropShadow" result="shape"/>
</filter>
</defs>
</svg>
