<svg width="28" height="28" viewBox="0 0 28 28" fill="none" xmlns="http://www.w3.org/2000/svg">
<path d="M13.9003 19.3064C13.9003 19.3064 7.48895 19.3064 4.12109 19.3064C6.84032 19.3064 7.78831 18.222 7.78831 12.3702C7.78831 6.51849 13.0272 6.1344 14.0001 6.1344C14.9731 6.1344 20.2119 6.51849 20.2119 12.3702C20.2119 18.222 21.1849 19.3064 23.8792 19.3064C20.4864 19.3064 14.0999 19.3064 14.0999 19.3064C14.0999 19.3064 13.9502 19.3064 13.9003 19.3064Z" stroke="#674FEE" stroke-width="2" stroke-miterlimit="10" stroke-linecap="round" stroke-linejoin="round"/>
<path d="M18.6103 19.3065C18.6103 21.8239 16.5479 23.9167 14.0001 23.9167C11.4827 23.9167 9.38989 21.8542 9.38989 19.3065" stroke="#674FEE" stroke-width="2" stroke-miterlimit="10" stroke-linecap="round" stroke-linejoin="round"/>
<path d="M14 3.5L14 6.13441" stroke="#674FEE" stroke-width="2" stroke-miterlimit="10" stroke-linecap="round" stroke-linejoin="round"/>
</svg>
