<svg width="28" height="28" viewBox="0 0 28 28" fill="none" xmlns="http://www.w3.org/2000/svg">
<path d="M13.8435 19.3064C13.8435 19.3064 7.43206 19.3064 4.06421 19.3064M13.8435 19.3064C13.8933 19.3064 15.3602 19.3064 15.3602 19.3064H13.8435ZM13.8435 19.3064H4.06421M4.06421 19.3064C6.78344 19.3064 7.73143 18.222 7.73143 12.3702C7.73143 6.51849 12.9703 6.1344 13.9432 6.1344C14.9162 6.1344 20.1551 6.51849 20.1551 12.3702" stroke="#B4B4B4" stroke-width="2" stroke-miterlimit="10" stroke-linecap="round" stroke-linejoin="round"/>
<path d="M9.33301 19.3065C9.33301 21.8542 11.4258 23.9167 13.9432 23.9167C14.3394 23.9167 15.2604 23.9167 16.3142 23.3898" stroke="#B4B4B4" stroke-width="2" stroke-miterlimit="10" stroke-linecap="round" stroke-linejoin="round"/>
<path d="M13.9431 3.5L13.9431 6.13441" stroke="#B4B4B4" stroke-width="2" stroke-miterlimit="10" stroke-linecap="round" stroke-linejoin="round"/>
<line x1="18.3141" y1="16.0864" x2="23.4197" y2="21.192" stroke="#B4B4B4" stroke-width="2" stroke-linecap="round"/>
<line x1="18.2971" y1="21.1921" x2="23.4027" y2="16.0865" stroke="#B4B4B4" stroke-width="2" stroke-linecap="round"/>
</svg>
