<svg width="48" height="48" viewBox="0 0 48 48" fill="none" xmlns="http://www.w3.org/2000/svg">
<g clip-path="url(#clip0)">
<path d="M24.1649 32.7042C29.7751 27.379 30.5364 18.9945 25.8655 13.9769C21.1945 8.95936 12.86 9.20876 7.24987 14.534C1.63972 19.8592 0.878358 28.2437 5.54932 33.2613C10.2203 38.2788 18.5548 38.0294 24.1649 32.7042Z" stroke="#674FEE" stroke-width="5"/>
<path d="M17.1284 38.1676C21.311 44.2011 29.477 41.7877 34.6554 34.7486" stroke="#674FEE" stroke-width="5" stroke-linecap="round"/>
<path d="M44.4151 41.7877C46.3951 41.7877 48.0002 40.1669 48.0002 38.1676C48.0002 36.1683 46.3951 34.5475 44.4151 34.5475C42.4352 34.5475 40.8301 36.1683 40.8301 38.1676C40.8301 40.1669 42.4352 41.7877 44.4151 41.7877Z" fill="#674FEE"/>
</g>
<defs>
<clipPath id="clip0">
<rect width="48" height="36" fill="white" transform="translate(0 8)"/>
</clipPath>
</defs>
</svg>
