<svg width="85" height="89" viewBox="0 0 85 89" fill="none" xmlns="http://www.w3.org/2000/svg">
<g filter="url(#filter0_d)">
<path fill-rule="evenodd" clip-rule="evenodd" d="M42.8798 58.7057C58.5185 58.7057 71.1962 46.0281 71.1962 30.3894C71.1962 14.7508 58.5185 2.07312 42.8798 2.07312C27.2411 2.07312 14.5635 14.7508 14.5635 30.3894C14.5635 46.0281 27.2411 58.7057 42.8798 58.7057ZM42.8796 40.5023C48.4648 40.5023 52.9925 35.9745 52.9925 30.3893C52.9925 24.8041 48.4648 20.2763 42.8796 20.2763C37.2943 20.2763 32.7666 24.8041 32.7666 30.3893C32.7666 35.9745 37.2943 40.5023 42.8796 40.5023Z" fill="#FFB41F"/>
<path d="M13.4671 69.9764L40.8318 44.4361C41.9844 43.3604 43.7731 43.3604 44.9257 44.4362L72.2903 69.9764C72.6221 70.2861 72.403 70.842 71.9492 70.842H60.5708C60.2947 70.842 60.0708 71.0658 60.0708 71.342V83.793C60.0708 84.2384 59.5323 84.4615 59.2173 84.1465L43.2432 68.1725C43.0437 67.973 42.7188 67.978 42.5255 68.1834L27.5621 84.082C27.2517 84.4117 26.698 84.1921 26.698 83.7393V71.342C26.698 71.0658 26.4741 70.842 26.198 70.842H13.8083C13.3545 70.842 13.1354 70.2861 13.4671 69.9764Z" fill="#674FEE"/>
<path fill-rule="evenodd" clip-rule="evenodd" d="M42.8798 58.7057C58.5185 58.7057 71.1962 46.0281 71.1962 30.3894C71.1962 14.7508 58.5185 2.07312 42.8798 2.07312C27.2411 2.07312 14.5635 14.7508 14.5635 30.3894C14.5635 46.0281 27.2411 58.7057 42.8798 58.7057ZM42.8796 40.5023C48.4648 40.5023 52.9925 35.9745 52.9925 30.3893C52.9925 24.8041 48.4648 20.2763 42.8796 20.2763C37.2943 20.2763 32.7666 24.8041 32.7666 30.3893C32.7666 35.9745 37.2943 40.5023 42.8796 40.5023Z" fill="#FFB41F" fill-opacity="0.4"/>
</g>
<defs>
<filter id="filter0_d" x="11.3074" y="0.0731201" width="65.1429" height="88.2209" filterUnits="userSpaceOnUse" color-interpolation-filters="sRGB">
<feFlood flood-opacity="0" result="BackgroundImageFix"/>
<feColorMatrix in="SourceAlpha" type="matrix" values="0 0 0 0 0 0 0 0 0 0 0 0 0 0 0 0 0 0 127 0"/>
<feOffset dx="1" dy="1"/>
<feGaussianBlur stdDeviation="1.5"/>
<feColorMatrix type="matrix" values="0 0 0 0 0 0 0 0 0 0 0 0 0 0 0 0 0 0 0.15 0"/>
<feBlend mode="normal" in2="BackgroundImageFix" result="effect1_dropShadow"/>
<feBlend mode="normal" in="SourceGraphic" in2="effect1_dropShadow" result="shape"/>
</filter>
</defs>
</svg>
