<?xml version="1.0" encoding="utf-8"?>
<!-- Generator: Adobe Illustrator 17.0.0, SVG Export Plug-In . SVG Version: 6.00 Build 0)  -->
<!DOCTYPE svg PUBLIC "-//W3C//DTD SVG 1.1//EN" "http://www.w3.org/Graphics/SVG/1.1/DTD/svg11.dtd">
<svg version="1.1" id="레이어_1" xmlns="http://www.w3.org/2000/svg" xmlns:xlink="http://www.w3.org/1999/xlink" x="0px"
	 y="0px" width="20px" height="15px" viewBox="0 0 20 15" enable-background="new 0 0 20 15" xml:space="preserve">
<path fill="#674FEE" d="M2,15H0c0-3.314,2.686-6,6-6s6,2.686,6,6h-2c0-2.209-1.791-4-4-4S2,12.791,2,15z M13.994,11.41l-2.706-2.7
	L12.7,7.292l1.292,1.292l4.3-4.292l1.412,1.416l-5.712,5.7L13.994,11.41z M6,8C3.791,8,2,6.209,2,4s1.791-4,4-4s4,1.791,4,4
	C9.997,6.208,8.208,7.997,6,8z M6,2C4.907,2.001,4.018,2.879,4.002,3.971c-0.016,1.092,0.848,1.995,1.94,2.028
	C7.035,6.032,7.951,5.181,8,4.09v0.4V4C8,2.895,7.105,2,6,2z"/>
</svg>
