<svg xmlns="http://www.w3.org/2000/svg" xmlns:xlink="http://www.w3.org/1999/xlink" width="198" height="51" viewBox="0 0 198 51">
  <defs>
    <linearGradient id="linear-gradient" x1="1.506" y1="1.194" x2="-0.218" y2="0.03" gradientUnits="objectBoundingBox">
      <stop offset="0.039" stop-color="#df1f1c"/>
      <stop offset="0.378" stop-color="#cd1d1e"/>
      <stop offset="1" stop-color="#861015"/>
    </linearGradient>
  </defs>
  <g id="그룹_13" data-name="그룹 13" transform="translate(-182.367 -11.597)">
    <g id="그룹_3" data-name="그룹 3" transform="translate(182.367 11.597)">
      <g id="그룹_2" data-name="그룹 2">
        <g id="그룹_1" data-name="그룹 1">
          <path id="패스_1" data-name="패스 1" d="M191.019,32.243l9-3.209h4.837a9.52,9.52,0,0,0,5.924-1.638,5.54,5.54,0,0,0,2.115-4.622,4.76,4.76,0,0,0-2.108-4.1,26.47,26.47,0,0,0-2.476-1.018s5.665-4.794,10.406-6.061c2.629,2.586,4.353,5.209,4.827,8.279a11.934,11.934,0,0,1-1.114,8.146,14.336,14.336,0,0,1-4.389,5.04,16.463,16.463,0,0,1,5.536,5.026,13.224,13.224,0,0,1,2.35,9.207,14.567,14.567,0,0,1-5.8,10.912c-3.617,2.9-8.221,4.347-13.774,4.347H182.367V31.112ZM212.865,50.6a6.693,6.693,0,0,0,2.271-4.947,6.57,6.57,0,0,0-2.195-4.887c-1.465-1.416-3.8-2.119-6.968-2.119H191.394L191.377,52.8h14.374Q210.584,52.8,212.865,50.6Z" transform="translate(-182.367 -11.597)" fill="#fff"/>
        </g>
      </g>
      <path id="패스_2" data-name="패스 2" d="M182.367,19.282V50.761h9.02V17.687S187.379,14.641,182.367,19.282Z" transform="translate(-182.367 0.239)" fill="url(#linear-gradient)"/>
      <path id="패스_3" data-name="패스 3" d="M189.59,24.158c3.759-.62,8.009,3.66,8.009,3.66,7.111-8.977,13.843-15.438,21.12-16.22-7.034,2.4-19.807,30.167-19.807,30.167s-11.994-15.223-16.545-10.654A23.622,23.622,0,0,1,189.59,24.158Z" transform="translate(-182.367 -11.597)" fill="#df1f1c"/>
    </g>
    <g id="그룹_6" data-name="그룹 6" transform="translate(233.121 16.142)">
      <g id="그룹_4" data-name="그룹 4" transform="translate(0.613)">
        <path id="패스_4" data-name="패스 4" d="M197.883,13.088h6.948c4.31,0,7.6,1.246,7.6,5.158a4.76,4.76,0,0,1-2.864,4.538v.143a4.766,4.766,0,0,1,3.942,4.959c0,4.227-3.514,6.182-8.138,6.182h-7.485Zm6.637,8.533c2.665,0,3.829-1.077,3.829-2.751,0-1.84-1.25-2.579-3.772-2.579h-2.5v5.331ZM205,30.837c2.864,0,4.426-1.021,4.426-3.206,0-2.039-1.532-2.891-4.426-2.891H202.08v6.1Z" transform="translate(-197.883 -12.69)" fill="#fff"/>
        <path id="패스_5" data-name="패스 5" d="M203.709,13.088h4.28l6.1,11.172,2.1,4.535h.143c-.229-2.181-.537-4.963-.537-7.343V13.088h3.968V34.069H215.5l-6.066-11.228-2.128-4.508h-.143c.2,2.267.511,4.906.511,7.316v8.42h-3.968Z" transform="translate(-184.396 -12.69)" fill="#fff"/>
        <path id="패스_6" data-name="패스 6" d="M209.7,31.681l2.41-2.891a8.253,8.253,0,0,0,5.331,2.324c2.181,0,3.345-.935,3.345-2.41,0-1.558-1.276-2.042-3.149-2.834l-2.8-1.193c-2.128-.878-4.253-2.579-4.253-5.642,0-3.431,3-6.066,7.257-6.066a9.316,9.316,0,0,1,6.58,2.7L222.284,18.3a6.687,6.687,0,0,0-4.452-1.73c-1.843,0-3.033.822-3.033,2.211,0,1.505,1.505,2.042,3.288,2.751l2.751,1.164c2.553,1.048,4.223,2.665,4.223,5.7,0,3.431-2.861,6.352-7.711,6.352A11.175,11.175,0,0,1,209.7,31.681Z" transform="translate(-170.533 -12.968)" fill="#fff"/>
        <path id="패스_7" data-name="패스 7" d="M220.919,26.384l-6.3-13.3h4.452l2.1,5.1c.593,1.561,1.16,3.033,1.813,4.651h.113c.653-1.618,1.276-3.09,1.873-4.651l2.1-5.1h4.366l-6.322,13.3v7.684h-4.2Z" transform="translate(-159.127 -12.69)" fill="#fff"/>
        <path id="패스_8" data-name="패스 8" d="M220,31.681l2.41-2.891a8.26,8.26,0,0,0,5.331,2.324c2.185,0,3.345-.935,3.345-2.41,0-1.558-1.273-2.042-3.146-2.834l-2.808-1.193c-2.125-.878-4.253-2.579-4.253-5.642,0-3.431,3.007-6.066,7.26-6.066a9.3,9.3,0,0,1,6.577,2.7L232.594,18.3a6.687,6.687,0,0,0-4.452-1.73c-1.843,0-3.033.822-3.033,2.211,0,1.505,1.5,2.042,3.288,2.751l2.751,1.164c2.549,1.048,4.223,2.665,4.223,5.7,0,3.431-2.864,6.352-7.711,6.352A11.189,11.189,0,0,1,220,31.681Z" transform="translate(-146.673 -12.968)" fill="#fff"/>
        <path id="패스_9" data-name="패스 9" d="M231.136,16.575h-5.9V13.088h16.048v3.487h-5.954V34.069h-4.2Z" transform="translate(-134.554 -12.69)" fill="#fff"/>
        <path id="패스_10" data-name="패스 10" d="M231.107,13.088h12.872v3.487H235.3v4.847h7.373v3.517H235.3v5.612h8.99v3.517H231.107Z" transform="translate(-120.969 -12.69)" fill="#fff"/>
        <path id="패스_11" data-name="패스 11" d="M236.368,13.088h4.651l3.57,9.809c.454,1.306.852,2.7,1.276,4.054h.142c.454-1.359.822-2.748,1.276-4.054l3.487-9.809h4.651V34.069h-3.829V25.307c0-1.986.312-4.906.511-6.889h-.113l-1.7,4.933-3.232,8.818h-2.41l-3.262-8.818-1.674-4.933H239.6c.2,1.982.54,4.9.54,6.889v8.762h-3.772Z" transform="translate(-108.79 -12.69)" fill="#fff"/>
      </g>
      <g id="그룹_5" data-name="그룹 5" transform="translate(0 29.459)">
        <path id="패스_12" data-name="패스 12" d="M199.23,23.287v4.482h4.916V23.287h1.531v11.44H197.7V23.287Zm0,10.17h4.916V29H199.23Zm11.384-11.606V38.828h-1.551V21.852Z" transform="translate(-197.698 -21.852)" fill="#fff"/>
        <path id="패스_13" data-name="패스 13" d="M210.383,27.947a3.778,3.778,0,0,1-3.819,3.461,3.841,3.841,0,0,1-3.859-4.124,3.849,3.849,0,0,1,3.859-4.121,3.784,3.784,0,0,1,3.819,3.517h1.777v-4.5h1.455V34.033h-1.455V27.947Zm-3.819,2.135a2.557,2.557,0,0,0,2.456-2.8,2.484,2.484,0,1,0-4.933,0A2.57,2.57,0,0,0,206.564,30.082Zm10.777,7.071v1.266H205.788V32.9h1.551v4.253Zm-.494-2.629h-1.492V21.857h1.492Z" transform="translate(-186.107 -21.84)" fill="#fff"/>
        <path id="패스_14" data-name="패스 14" d="M213.964,26.37a8.43,8.43,0,0,0,4.538,7.353l-.928,1.25a9.214,9.214,0,0,1-4.366-5.37,9.425,9.425,0,0,1-4.386,5.692l-.945-1.266a8.913,8.913,0,0,0,4.555-7.658V23.324h1.532Zm7.867-4.518v17h-1.551v-17Z" transform="translate(-174.131 -21.852)" fill="#fff"/>
        <path id="패스_15" data-name="패스 15" d="M228.519,34.423V35.71H213.147V34.423Zm-1.459-3.59a9.213,9.213,0,0,1-6.3-4.9,9.314,9.314,0,0,1-6.275,4.9l-.7-1.286c2.967-.587,6.163-3.139,6.163-6.03V22.211h1.628v1.306c0,2.891,3.212,5.463,6.182,6.03Z" transform="translate(-161.933 -21.021)" fill="#fff"/>
        <path id="패스_16" data-name="패스 16" d="M225.943,30.584a29.7,29.7,0,0,1-6.239.454h-1.077V22.946h6.411V24.2h-4.916v2.1h4.253V27.5h-4.253v2.287a26.557,26.557,0,0,0,5.692-.454Zm-4.913,2.291h11.135v5.708H221.03Zm1.512,4.462h8.112V34.1h-8.112Zm4.86-9.965h-2.251V26.125H227.4V22.134h1.472V31.89H227.4Zm4.764-5.519V32.059h-1.5V21.852Z" transform="translate(-149.247 -21.852)" fill="#fff"/>
      </g>
    </g>
  </g>
</svg>
