<svg xmlns="http://www.w3.org/2000/svg" width="17.51" height="27.119" viewBox="0 0 17.51 27.119">
  <g id="그룹_251" data-name="그룹 251" transform="translate(-394.264 -449.668)">
    <path id="패스_5" data-name="패스 5" d="M403.019,523.677a8.755,8.755,0,1,1,8.755-8.755A8.765,8.765,0,0,1,403.019,523.677Zm0-14.618a5.864,5.864,0,1,0,5.864,5.864A5.87,5.87,0,0,0,403.019,509.059Z" transform="translate(0 -46.891)" fill="#ff8000"/>
    <path id="패스_6" data-name="패스 6" d="M416.01,464.945a1.446,1.446,0,0,1-1.446-1.446v-6.6a4.337,4.337,0,0,0-8.673,0v6.6a1.446,1.446,0,0,1-2.891,0v-6.6a7.228,7.228,0,0,1,14.456,0v6.6A1.446,1.446,0,0,1,416.01,464.945Z" transform="translate(-7.25)" fill="#ff8000"/>
    <path id="패스_7" data-name="패스 7" d="M438.446,550.262A1.446,1.446,0,0,1,437,548.816v-1.871a1.446,1.446,0,0,1,2.891,0v1.871A1.446,1.446,0,0,1,438.446,550.262Z" transform="translate(-35.468 -79.534)" fill="#ff8000"/>
  </g>
</svg>
