<svg xmlns="http://www.w3.org/2000/svg" width="21.917" height="24.877" viewBox="0 0 21.917 24.877">
  <g id="그룹_262" data-name="그룹 262" transform="translate(-114.593 -445.418)">
    <path id="패스_21" data-name="패스 21" d="M142.217,461.54a8.061,8.061,0,1,1,8.061-8.061A8.07,8.07,0,0,1,142.217,461.54Zm0-13.6a5.543,5.543,0,1,0,5.543,5.543A5.549,5.549,0,0,0,142.217,447.936Z" transform="translate(-16.665 0)" fill="#ff8000"/>
    <path id="패스_22" data-name="패스 22" d="M115.852,544.572a1.259,1.259,0,0,1-1.259-1.259A11.756,11.756,0,0,1,121.3,532.73a1.259,1.259,0,1,1,1.076,2.276,9.228,9.228,0,0,0-5.263,8.306A1.259,1.259,0,0,1,115.852,544.572Z" transform="translate(0 -74.277)" fill="#ff8000"/>
    <path id="패스_23" data-name="패스 23" d="M212.4,544.569a1.259,1.259,0,0,1-1.259-1.259A9.228,9.228,0,0,0,205.877,535a1.259,1.259,0,0,1,1.076-2.277,11.756,11.756,0,0,1,6.706,10.583A1.259,1.259,0,0,1,212.4,544.569Z" transform="translate(-77.149 -74.274)" fill="#ff8000"/>
    <path id="패스_24" data-name="패스 24" d="M167.238,571.41a1.235,1.235,0,0,1-.967-.425l-2.016-2.4a1.256,1.256,0,1,1,1.934-1.6l1.019,1.224,2.776-3.541a1.259,1.259,0,0,1,1.982,1.554l-3.737,4.74a1.215,1.215,0,0,1-.972.455Z" transform="translate(-42.057 -101.171)" fill="#ff8000"/>
  </g>
</svg>
