<?xml version="1.0" encoding="utf-8"?>
<!-- Generator: Adobe Illustrator 25.1.0, SVG Export Plug-In . SVG Version: 6.00 Build 0)  -->
<svg version="1.1" id="iconmonstr" xmlns="http://www.w3.org/2000/svg" xmlns:xlink="http://www.w3.org/1999/xlink" x="0px" y="0px"
	 viewBox="0 0 24 24" style="enable-background:new 0 0 24 24;" xml:space="preserve">
<style type="text/css">
	.st0{fill:#fff;}
</style>
<path id="user-7" class="st0" d="M12,2c3.032,0,5.499,2.467,5.499,5.501c0,1.458-0.482,3.196-3.247,5.59
	c4.11,1.961,6.601,5.253,7.481,8.909H2.248c0.954-4.188,4.005-7.399,7.518-8.889c-1.6-1.289-3.266-3.325-3.266-5.611
	C6.501,4.467,8.968,2,12,2z M12,0C7.858,0,4.501,3.357,4.501,7.501c0,2.012,0.797,3.834,2.086,5.182C1.556,15.69,0,21.183,0,24h24
	c0-2.791-1.657-8.28-6.59-11.314c1.292-1.348,2.089-3.172,2.089-5.185C19.499,3.357,16.143,0,12,0z"/>
</svg>
